<?xml version="1.0" standalone="no"?>
<!DOCTYPE svg PUBLIC "-//W3C//DTD SVG 20010904//EN"
 "http://www.w3.org/TR/2001/REC-SVG-20010904/DTD/svg10.dtd">
<svg version="1.0" xmlns="http://www.w3.org/2000/svg"
 width="1981.000000pt" height="1981.000000pt" viewBox="0 0 1981.000000 1981.000000"
 preserveAspectRatio="xMidYMid meet">
<metadata>
Created by potrace 1.14, written by Peter Selinger 2001-2017
</metadata>
<g transform="translate(0.000000,1981.000000) scale(0.100000,-0.100000)"
fill="#000000" stroke="none">
<path d="M9834 18794 c-56 -11 -93 -26 -164 -65 -46 -25 -108 -90 -152 -158
-24 -36 -46 -68 -51 -69 -4 -2 -5 -8 -1 -13 3 -5 -2 -12 -10 -15 -9 -3 -13
-10 -10 -15 3 -5 0 -9 -6 -9 -6 0 -8 -4 -5 -10 3 -5 -2 -10 -11 -10 -10 0 -14
-3 -11 -6 3 -4 -3 -18 -13 -32 -11 -13 -20 -33 -20 -43 0 -9 -4 -19 -8 -21
-11 -5 -64 -108 -55 -108 5 0 3 -4 -2 -8 -6 -4 -25 -36 -42 -72 -17 -36 -52
-94 -79 -130 -68 -92 -174 -250 -174 -260 0 -5 -3 -10 -8 -12 -4 -1 -27 -34
-52 -73 -25 -38 -54 -81 -65 -94 -27 -33 -166 -170 -256 -254 -41 -38 -157
-150 -260 -250 -102 -100 -212 -204 -245 -232 -32 -27 -72 -62 -87 -77 -16
-16 -30 -28 -33 -28 -2 0 -26 -22 -54 -50 -28 -27 -53 -50 -56 -50 -3 0 -12
-7 -20 -15 -9 -8 -46 -36 -82 -62 -37 -26 -68 -51 -70 -55 -2 -5 -7 -8 -12 -8
-8 0 -153 -94 -177 -115 -6 -5 -28 -21 -48 -35 -19 -14 -72 -53 -118 -88 -45
-34 -93 -70 -107 -79 -14 -9 -48 -36 -77 -60 -28 -24 -56 -43 -62 -43 -6 0
-11 -4 -11 -8 0 -4 -28 -28 -62 -52 -70 -49 -81 -57 -109 -82 -10 -10 -19 -15
-19 -12 0 3 -6 -1 -13 -8 -8 -7 -31 -26 -52 -43 -93 -73 -233 -190 -300 -250
-40 -36 -84 -75 -96 -86 -13 -11 -38 -33 -54 -48 -41 -37 -263 -206 -349 -266
-38 -26 -74 -52 -80 -57 -13 -11 -185 -139 -335 -248 -108 -79 -269 -199 -311
-231 -14 -11 -52 -40 -85 -65 -33 -25 -61 -50 -63 -55 -2 -5 -8 -9 -12 -9 -8
0 -244 -187 -295 -232 -31 -28 -44 -38 -51 -38 -4 0 -12 -6 -18 -14 -13 -16
-161 -132 -301 -236 -55 -41 -102 -77 -105 -80 -3 -3 -48 -39 -100 -80 -86
-67 -228 -184 -240 -199 -3 -3 -34 -30 -70 -60 -36 -30 -72 -62 -82 -70 -9 -9
-29 -26 -45 -38 -15 -12 -41 -34 -58 -49 -16 -14 -47 -40 -68 -57 -115 -95
-184 -155 -316 -276 -14 -12 -46 -39 -70 -60 -24 -20 -49 -40 -55 -46 -6 -5
-34 -28 -61 -50 -28 -22 -51 -43 -53 -47 -2 -5 -8 -8 -14 -8 -5 0 -30 -16 -54
-36 -24 -20 -44 -32 -44 -28 0 5 -4 4 -8 -2 -4 -5 -41 -36 -83 -67 -74 -55
-146 -123 -320 -303 -48 -49 -140 -142 -206 -206 -65 -64 -135 -136 -154 -159
-18 -23 -41 -49 -49 -58 -8 -9 -42 -52 -75 -96 -89 -119 -173 -216 -354 -404
-24 -25 -71 -77 -105 -116 -33 -38 -71 -80 -83 -92 -13 -13 -23 -26 -23 -29 0
-2 -11 -17 -24 -32 -24 -27 -247 -294 -269 -322 -7 -8 -35 -46 -62 -85 -27
-38 -52 -72 -56 -75 -3 -3 -18 -23 -32 -45 -14 -22 -60 -87 -101 -145 -42 -58
-81 -113 -88 -124 -7 -10 -27 -37 -44 -60 -80 -106 -168 -253 -241 -401 -33
-67 -62 -126 -265 -528 -75 -151 -169 -362 -184 -417 -2 -8 -20 -71 -40 -140
-19 -69 -37 -134 -39 -145 -3 -11 -16 -63 -29 -115 -14 -52 -28 -110 -31 -129
-3 -19 -7 -37 -9 -40 -2 -3 -7 -26 -10 -51 -3 -25 -8 -56 -11 -70 -12 -62 -18
-242 -18 -580 0 -416 5 -516 43 -745 6 -38 13 -81 15 -95 6 -45 15 -89 31
-157 9 -38 18 -79 21 -93 4 -22 20 -83 53 -205 27 -99 82 -284 90 -305 6 -14
12 -36 15 -50 2 -14 11 -41 19 -60 8 -19 27 -69 42 -110 15 -41 53 -129 84
-195 31 -66 64 -136 72 -155 110 -251 124 -277 359 -627 102 -153 203 -305
224 -337 21 -33 45 -66 54 -75 9 -9 25 -28 37 -43 18 -23 81 -97 134 -158 8
-9 40 -45 70 -80 92 -106 227 -237 345 -335 71 -58 137 -118 245 -222 52 -50
129 -119 170 -153 99 -82 155 -129 193 -163 18 -15 45 -37 60 -50 15 -12 40
-32 55 -45 15 -12 50 -37 77 -54 28 -18 52 -35 55 -38 3 -4 12 -9 20 -13 8 -4
36 -19 61 -34 156 -95 225 -137 229 -142 11 -13 101 -71 109 -71 5 0 11 -3 13
-7 5 -11 147 -113 157 -113 5 0 11 -4 13 -9 3 -9 149 -105 248 -163 30 -17 57
-35 58 -40 2 -4 8 -8 13 -8 5 0 62 -35 127 -79 64 -43 149 -98 187 -122 102
-62 644 -339 665 -339 5 0 10 -5 10 -11 0 -5 4 -8 8 -5 4 2 21 -1 37 -9 17 -7
82 -32 145 -55 63 -23 142 -54 175 -70 33 -15 103 -47 155 -70 52 -23 109 -48
127 -56 17 -8 37 -14 45 -14 8 0 19 -5 26 -12 7 -7 12 -9 12 -5 0 9 183 -56
275 -98 167 -78 465 -192 465 -179 0 4 6 2 13 -3 6 -6 30 -16 52 -23 22 -7 72
-28 110 -45 60 -27 158 -67 175 -70 3 -1 32 -10 65 -20 33 -10 65 -20 70 -21
35 -6 171 -47 175 -53 3 -3 10 -7 15 -7 6 -1 49 -13 97 -28 47 -15 117 -33
155 -40 68 -13 81 -15 86 -17 1 0 16 -3 32 -5 17 -3 81 -16 144 -30 62 -13
116 -22 119 -20 2 3 12 1 21 -4 15 -8 72 -13 266 -26 39 -2 86 -6 105 -8 19
-3 60 -7 90 -11 30 -3 75 -10 100 -15 25 -5 65 -12 90 -15 25 -4 56 -8 70 -10
31 -5 212 -16 305 -20 39 -1 140 -6 225 -11 200 -12 1236 -12 1405 0 72 5 362
9 645 9 283 0 544 4 580 8 36 5 81 12 100 14 19 3 78 8 130 10 182 10 272 18
334 29 45 8 119 20 136 21 8 1 22 4 30 8 8 3 33 8 55 11 22 2 51 7 65 10 22 5
81 13 150 21 45 5 133 17 154 21 12 2 46 8 76 14 57 10 86 16 120 25 11 3 28
7 38 9 9 2 76 20 147 40 107 29 287 67 380 80 11 2 34 6 50 10 17 3 44 8 60
11 17 2 62 13 100 24 39 10 95 26 125 34 30 9 102 31 160 50 99 33 174 55 212
62 9 2 43 10 75 19 32 8 112 28 178 45 153 39 484 147 501 164 4 4 14 7 22 7
8 0 28 7 45 15 80 36 213 84 462 166 149 49 279 93 290 98 11 5 45 21 75 34
30 14 104 48 163 76 59 28 112 51 117 51 4 0 10 3 12 8 2 4 26 19 55 34 84 43
207 110 219 119 6 5 14 6 17 2 4 -3 7 -1 7 5 0 7 5 12 10 12 6 0 28 11 50 25
22 14 40 22 40 19 0 -4 8 0 18 8 9 9 46 30 82 48 36 18 67 35 70 39 3 3 34 21
70 40 36 19 72 40 81 47 8 8 19 14 24 14 4 0 34 18 67 40 33 22 63 40 66 40 3
0 20 11 38 25 18 14 35 25 37 25 2 0 51 31 108 68 57 38 124 79 149 92 25 14
54 32 65 40 11 9 56 38 100 65 44 27 86 55 93 62 7 7 17 13 22 13 5 0 15 6 22
13 7 7 74 51 148 97 74 47 141 90 148 97 7 7 17 13 22 13 8 0 215 152 256 187
11 10 42 36 69 58 26 22 53 45 59 50 6 6 29 23 51 40 21 16 46 36 55 45 9 8
41 35 71 60 96 80 200 183 266 265 107 134 363 524 363 555 0 5 4 10 8 10 4 0
13 12 19 27 7 16 27 55 47 88 19 33 76 143 128 245 51 102 96 188 101 191 5 3
9 10 8 15 0 9 50 115 59 124 10 9 127 244 135 270 4 14 16 36 25 50 10 14 18
27 18 30 1 11 15 47 33 90 11 25 20 50 20 55 0 6 6 19 13 30 14 22 103 263
132 360 10 33 23 63 29 67 5 4 7 8 4 8 -4 0 4 41 17 92 13 50 29 130 34 177 6
47 13 97 15 111 13 70 28 924 16 936 -3 2 -6 19 -7 37 -3 37 -32 194 -49 267
-1 3 -5 24 -9 47 -4 24 -19 73 -32 109 -13 36 -22 70 -19 74 3 5 0 10 -5 12
-6 2 -12 10 -13 18 -2 8 -7 22 -12 30 -5 8 -10 17 -11 20 0 3 -10 25 -21 50
-17 38 -63 168 -69 193 -1 4 -3 9 -4 12 -1 3 -3 8 -4 13 -1 4 -10 24 -19 46
-9 21 -17 42 -17 46 0 8 -118 240 -130 255 -4 6 -50 93 -102 195 -52 102 -114
217 -138 255 -53 87 -152 229 -162 233 -4 2 -8 8 -8 12 0 15 -194 289 -250
354 -14 16 -35 40 -48 53 -13 12 -19 23 -15 23 4 0 -2 7 -15 15 -17 13 -115
149 -167 234 -5 9 -12 18 -15 21 -3 3 -23 27 -45 54 -21 27 -64 76 -95 107
-30 32 -60 64 -65 71 -23 29 -105 149 -105 154 0 5 -179 235 -189 244 -21 17
-111 128 -111 137 0 6 -4 13 -9 15 -11 4 -181 255 -181 267 0 5 -3 11 -8 13
-4 2 -26 28 -49 58 -49 64 -45 57 -103 135 -25 33 -49 65 -55 71 -5 6 -30 35
-55 65 -25 29 -58 67 -75 85 -16 17 -77 82 -135 144 -58 62 -119 127 -136 145
-17 18 -37 41 -45 52 -15 21 -83 102 -132 157 -16 17 -88 92 -161 166 -87 90
-157 172 -206 245 -41 61 -78 115 -82 120 -30 40 -128 156 -157 185 -63 65
-148 166 -237 285 -20 28 -41 51 -46 53 -4 2 -8 7 -8 11 0 21 -303 332 -395
406 -27 22 -56 47 -65 55 -9 8 -33 29 -54 45 -22 17 -48 39 -60 51 -12 12 -70
61 -131 110 -108 86 -145 119 -208 179 -18 17 -72 63 -122 103 -49 40 -105 84
-124 100 -41 33 -324 307 -585 567 -105 105 -251 246 -325 315 -166 155 -144
135 -221 200 -36 30 -67 57 -70 60 -9 9 -83 64 -133 98 -63 43 -131 100 -221
187 -12 11 -48 42 -81 70 -33 27 -62 52 -65 55 -3 3 -34 27 -70 55 -36 27 -71
54 -77 60 -7 5 -29 24 -49 40 -70 58 -263 255 -250 255 3 0 -16 19 -42 43 -26
23 -54 49 -62 58 -8 8 -44 39 -80 68 -118 97 -171 145 -295 266 -128 126 -177
171 -235 219 -60 49 -170 150 -286 263 -136 132 -201 193 -207 193 -15 0 -287
265 -287 280 0 15 11 12 27 -7 13 -16 13 -16 3 5 -12 25 -21 27 -37 11 -8 -8
-13 -8 -17 0 -4 6 -4 11 0 11 3 0 -4 9 -17 20 -13 10 -20 19 -15 20 5 0 3 7
-4 15 -7 8 -17 12 -24 9 -6 -3 -3 1 7 9 16 13 16 15 2 21 -9 3 -13 10 -10 16
3 5 0 10 -7 10 -10 0 -9 3 2 10 9 5 19 5 26 0 6 -6 15 -6 19 -2 5 4 5 1 1 -6
-4 -7 -9 -24 -12 -37 -4 -23 -2 -25 23 -21 l28 5 -25 -19 c-21 -17 -21 -19 -5
-14 16 5 17 4 5 -5 -8 -6 -10 -11 -5 -12 45 -7 51 -5 51 13 0 17 -2 17 -12 4
-14 -20 -21 -20 -21 -1 0 8 4 15 9 15 4 0 8 7 8 15 0 8 -5 15 -11 15 -5 0 -8
4 -4 9 3 6 -3 14 -12 20 -14 8 -15 10 -3 11 13 0 13 1 0 10 -8 5 -16 15 -16
22 -1 7 -2 17 -3 22 0 5 -8 3 -16 -4 -17 -14 -20 -1 -5 18 7 9 7 9 -2 2 -17
-14 -31 -12 -21 3 15 24 11 34 -12 29 -20 -3 -22 0 -20 25 1 20 -2 30 -11 30
-11 0 -11 -3 -1 -16 10 -12 9 -14 -6 -8 -11 4 -16 3 -12 -3 3 -6 0 -10 -9 -10
-8 0 -16 -6 -19 -12 -3 -10 -8 -10 -18 1 -8 8 -9 11 -3 8 7 -4 19 4 28 18 9
14 12 25 7 25 -5 0 -11 -5 -13 -11 -2 -5 -17 -12 -33 -13 -28 -4 -28 -3 -10
11 19 15 19 15 -3 10 -12 -3 -20 -1 -16 4 3 5 0 9 -6 9 -5 0 -18 16 -27 35 -9
19 -20 35 -24 35 -4 0 -10 12 -14 27 -3 15 -10 30 -14 33 -4 3 -24 37 -45 75
-43 80 -122 202 -145 226 -9 9 -25 29 -36 44 -77 108 -247 295 -267 295 -5 0
-21 9 -36 19 -73 53 -227 78 -338 55z m1061 -914 c-3 -17 0 -19 22 -14 18 5
24 4 19 -5 -4 -6 -12 -9 -17 -6 -5 4 -9 2 -9 -2 0 -5 9 -14 20 -21 23 -14 26
-32 6 -32 -8 0 -18 9 -21 20 -4 11 -11 18 -16 14 -5 -3 -8 0 -7 7 2 7 -4 14
-12 15 -31 3 -33 5 -15 24 23 26 35 26 30 0z m81 -70 c0 -12 -4 -16 -9 -11 -5
5 -6 14 -3 20 10 15 12 14 12 -9z m31 -63 c0 -8 -6 -14 -12 -14 -6 0 -12 6
-12 14 0 7 6 13 12 13 6 0 12 -6 12 -13z m-1484 -939 c-6 -7 -10 -20 -11 -28
0 -12 -10 -119 -12 -127 0 -2 0 -6 -1 -10 0 -5 -4 -12 -8 -18 -5 -5 -7 -20 -6
-32 1 -13 -1 -23 -5 -23 -6 0 -11 -36 -14 -92 0 -14 -4 -24 -9 -21 -4 2 -6 -7
-3 -21 3 -14 1 -26 -2 -26 -4 0 -7 -12 -6 -27 1 -16 -2 -32 -6 -38 -4 -5 -7
-17 -7 -25 -1 -8 -3 -26 -6 -40 -14 -58 -19 -86 -21 -100 0 -8 -5 -18 -9 -21
-4 -3 -9 -17 -11 -30 -1 -13 -8 -35 -16 -49 -7 -14 -13 -26 -12 -28 4 -4 -11
-57 -19 -67 -7 -10 -19 -56 -21 -82 -1 -7 -5 -13 -8 -13 -8 0 -23 -55 -23 -82
0 -10 -3 -18 -6 -18 -6 0 -36 -100 -33 -107 1 -2 -5 -18 -14 -38 -8 -19 -11
-35 -8 -35 4 0 1 -6 -5 -14 -6 -8 -11 -18 -10 -22 1 -5 -3 -22 -9 -37 -7 -16
-10 -33 -6 -38 3 -5 1 -9 -3 -9 -5 0 -9 -10 -10 -22 -1 -11 -8 -25 -15 -29 -7
-5 -10 -9 -6 -9 3 0 -1 -21 -9 -47 -8 -27 -16 -55 -18 -63 -2 -8 -14 -49 -28
-90 -14 -41 -23 -78 -21 -82 3 -4 0 -8 -6 -8 -6 0 -9 -4 -6 -9 3 -5 0 -14 -8
-20 -12 -10 -31 -66 -27 -83 0 -5 -3 -8 -8 -8 -8 0 -34 -63 -34 -80 0 -3 -7
-11 -16 -18 -9 -8 -11 -11 -4 -8 6 4 1 -14 -12 -39 -14 -25 -25 -49 -26 -53 0
-4 -7 -22 -15 -41 -8 -19 -12 -36 -10 -39 3 -2 -2 -11 -10 -19 -8 -8 -12 -18
-9 -23 3 -5 1 -11 -5 -15 -6 -4 -8 -11 -5 -16 4 -5 1 -9 -5 -9 -7 0 -10 -7 -6
-15 3 -8 1 -15 -4 -15 -6 0 -9 -3 -8 -7 1 -5 -4 -18 -11 -31 -7 -13 -14 -33
-16 -44 -3 -12 -8 -24 -12 -27 -5 -3 -9 -13 -11 -21 -2 -8 -12 -32 -21 -55
-47 -104 -59 -135 -54 -135 3 0 0 -7 -7 -15 -7 -8 -9 -15 -4 -15 5 0 3 -4 -3
-8 -7 -4 -14 -17 -16 -27 -2 -11 -9 -30 -15 -42 -7 -13 -10 -23 -6 -23 3 0 -1
-11 -10 -25 -9 -14 -14 -25 -12 -25 3 0 -3 -20 -14 -44 -10 -24 -16 -47 -13
-50 4 -3 1 -6 -5 -6 -7 0 -11 -3 -11 -7 1 -8 0 -12 -6 -30 -2 -5 -6 -18 -10
-30 -4 -13 -11 -23 -16 -23 -5 0 -8 -3 -7 -7 1 -5 -13 -39 -31 -78 -19 -38
-34 -72 -34 -75 0 -3 -7 -11 -14 -18 -7 -8 -11 -18 -8 -23 4 -5 1 -9 -6 -9 -7
0 -10 -3 -6 -6 3 -4 -1 -13 -9 -21 -8 -8 -12 -18 -9 -23 3 -5 1 -11 -5 -15
-16 -10 -41 -76 -33 -88 3 -5 2 -7 -3 -4 -9 5 -57 -84 -54 -99 1 -4 -3 -10 -8
-13 -11 -7 -57 -92 -57 -106 0 -5 -8 -18 -18 -28 -10 -10 -15 -22 -12 -27 4
-6 1 -10 -5 -10 -7 0 -9 -7 -6 -16 3 -8 2 -13 -2 -10 -9 5 -69 -113 -65 -126
2 -5 -1 -8 -6 -8 -9 0 -37 -60 -33 -72 1 -5 -3 -8 -8 -8 -6 0 -10 -6 -10 -14
0 -8 -4 -16 -9 -18 -5 -2 -11 -12 -13 -23 -1 -11 -7 -23 -13 -27 -5 -4 -10
-11 -11 -15 -1 -13 -27 -67 -39 -83 -7 -8 -25 -40 -41 -70 -15 -30 -36 -66
-46 -79 -10 -13 -15 -28 -11 -34 3 -5 1 -7 -4 -4 -11 7 -40 -50 -35 -66 1 -5
-1 -6 -6 -3 -12 7 -34 -42 -26 -56 5 -7 2 -8 -6 -3 -10 6 -12 4 -7 -9 4 -9 3
-15 -2 -12 -14 9 -21 -20 -8 -33 9 -9 8 -11 -6 -5 -13 5 -16 2 -11 -10 3 -9
11 -13 17 -9 6 3 7 1 3 -6 -4 -6 -11 -9 -16 -6 -4 3 -11 -2 -14 -11 -4 -10 -2
-13 7 -8 8 5 7 2 -2 -9 -7 -9 -11 -26 -8 -37 3 -11 0 -20 -5 -20 -6 0 -4 -8 3
-17 8 -9 9 -14 4 -11 -6 4 -11 -6 -11 -23 -1 -16 3 -29 8 -29 5 0 7 4 4 8 -3
5 1 9 9 9 13 0 13 -3 0 -17 -18 -20 -20 -34 -3 -24 7 5 8 3 2 -7 -12 -20 -14
-38 -3 -45 5 -3 7 -10 4 -15 -4 -5 1 -9 9 -9 9 0 16 -5 16 -11 0 -5 -5 -7 -10
-4 -6 4 0 -15 12 -42 13 -26 26 -49 31 -51 4 -2 7 -8 7 -13 0 -12 43 -55 52
-52 4 2 5 -4 2 -12 -4 -8 -1 -15 6 -15 6 0 8 -6 4 -12 -4 -7 -4 -10 1 -6 4 4
14 0 22 -8 8 -8 20 -11 26 -7 8 5 8 2 0 -9 -18 -21 -3 -31 17 -13 16 14 17 14
14 -12 -4 -24 -3 -25 5 -8 9 18 10 18 10 2 1 -10 6 -15 11 -12 6 3 10 1 10 -4
0 -6 5 -11 11 -11 5 0 8 4 5 8 -3 5 1 9 9 9 13 0 12 -4 -2 -19 -21 -23 -6 -24
19 -1 15 14 19 14 16 3 -2 -8 3 -14 10 -13 6 2 12 -2 12 -8 0 -6 -9 -8 -22 -4
-22 6 -22 5 -4 -9 15 -13 21 -13 30 -3 23 27 44 38 51 27 4 -6 2 -9 -3 -8 -6
2 -11 -1 -11 -6 -1 -5 17 -11 39 -12 22 -1 40 2 40 7 0 5 9 4 19 -3 19 -12 19
-12 0 -40 -11 -15 -18 -28 -15 -28 3 0 16 15 28 33 17 25 30 33 48 32 14 -2
36 7 49 19 l24 21 -16 -25 c-14 -22 -14 -27 -1 -45 15 -20 15 -20 35 5 17 20
20 21 14 5 -5 -15 -3 -17 6 -8 17 17 1 37 -17 22 -8 -6 -14 -8 -14 -3 1 12 23
40 35 45 6 2 9 7 8 10 -1 3 8 4 20 3 12 -1 26 -3 30 -3 11 -1 -2 -21 -14 -21
-6 0 -7 5 -3 12 4 7 3 8 -5 4 -16 -10 -4 -25 19 -23 10 1 16 5 14 9 -3 4 1 8
8 8 8 0 5 5 -5 11 -17 10 -16 13 13 30 17 11 28 23 25 28 -3 5 6 8 20 6 14 -1
28 2 32 8 4 6 1 7 -8 3 -8 -4 -3 1 10 12 18 15 21 21 10 25 -8 3 -9 6 -2 6 21
2 25 -19 9 -44 -15 -22 -14 -24 4 -30 11 -4 18 -12 14 -18 -3 -7 3 -2 14 10
11 12 22 20 24 18 3 -3 5 2 5 10 0 8 -2 13 -5 10 -10 -10 -32 25 -26 42 4 13
3 14 -4 5 -7 -11 -11 -10 -16 4 -4 10 -4 15 0 11 4 -4 12 1 19 9 13 19 60 10
49 -8 -4 -7 -2 -8 5 -4 15 10 -4 36 -28 37 -10 0 -12 2 -3 6 6 2 9 10 6 15 -4
6 -2 8 4 4 6 -3 13 -2 17 4 3 5 1 10 -6 10 -6 0 0 11 14 24 14 13 29 36 33 50
3 14 10 26 16 26 5 0 6 5 2 12 -4 7 -3 8 4 4 7 -4 12 -1 12 9 0 11 5 15 14 12
10 -4 13 -1 9 8 -3 8 -9 12 -14 9 -5 -3 1 10 14 29 12 18 36 60 52 93 17 32
32 61 35 64 12 12 30 51 30 64 0 8 3 16 8 18 9 4 114 214 112 224 -1 4 3 10 8
13 11 7 57 103 54 114 -1 4 3 7 8 7 6 0 10 6 10 14 0 8 6 21 13 28 20 21 58
108 51 119 -3 5 0 8 7 7 7 -2 20 15 28 37 9 22 20 47 26 55 5 8 10 21 12 29 1
8 8 18 15 22 7 5 10 9 5 9 -4 0 4 22 18 50 14 27 26 53 27 57 1 5 8 14 15 21
7 7 13 22 13 32 0 10 3 20 8 22 10 4 48 80 45 90 -2 4 2 8 8 8 6 0 9 9 6 20
-3 11 -1 18 3 15 5 -3 14 12 21 34 7 22 16 38 20 35 4 -2 6 5 4 16 -2 11 1 20
6 20 6 0 8 4 5 9 -4 5 -2 11 4 13 5 1 11 12 13 23 2 11 7 29 12 40 4 11 18 49
32 85 13 36 28 75 34 88 5 13 6 29 3 35 -4 7 -3 9 1 4 10 -9 37 51 29 64 -3 5
0 9 5 9 6 0 11 9 11 20 0 11 5 20 11 20 6 0 9 7 5 15 -3 8 -1 15 5 15 6 0 8 4
5 9 -4 5 -1 11 5 13 6 2 12 15 12 30 1 14 5 24 9 22 4 -3 10 8 14 23 4 15 11
34 16 40 6 7 8 20 4 28 -3 9 -2 13 4 10 9 -6 14 8 11 28 0 4 4 7 9 7 6 0 10 6
8 13 -1 6 4 23 11 36 7 12 11 31 8 41 -3 13 0 17 10 13 7 -3 13 -2 12 3 -1 5
0 12 1 17 1 4 4 12 5 17 1 6 4 12 5 15 1 3 3 8 5 13 1 4 10 25 20 47 10 22 18
46 18 53 0 6 4 12 9 12 5 0 6 5 3 10 -3 6 -1 10 4 10 6 0 11 9 11 20 0 11 5
20 10 20 6 0 9 3 8 8 -4 13 23 82 32 82 4 0 7 8 6 18 -2 9 1 20 6 23 6 4 11
18 11 32 1 14 5 23 8 21 6 -3 44 110 44 131 0 6 6 17 14 25 11 11 11 15 1 18
-7 3 -8 7 -3 11 7 4 54 138 69 194 1 4 2 8 4 10 1 1 3 9 5 17 2 8 7 26 11 40
3 14 7 35 8 47 0 11 4 19 9 16 4 -2 7 4 7 14 0 11 6 25 13 32 10 11 9 12 -1 6
-11 -6 -12 -3 -3 14 7 12 9 27 5 33 -4 7 -3 8 4 4 7 -4 12 -4 13 1 0 4 3 19 5
33 3 14 5 33 6 43 1 9 6 17 11 17 4 0 5 5 2 10 -3 6 -1 10 5 10 6 0 9 4 6 8
-5 8 12 67 26 87 3 6 9 28 13 49 6 31 10 35 17 22 5 -9 11 -26 14 -39 3 -12 6
-26 8 -32 2 -5 6 -23 10 -40 4 -16 10 -37 13 -45 4 -8 8 -31 11 -50 2 -19 7
-37 10 -40 4 -3 7 -13 8 -22 3 -60 5 -69 15 -62 8 5 8 1 0 -13 -6 -11 -8 -23
-4 -26 6 -6 21 -77 29 -137 3 -19 7 -45 9 -57 3 -13 7 -35 10 -50 3 -16 8 -39
11 -53 3 -14 8 -41 10 -60 4 -31 12 -78 29 -160 3 -14 10 -50 16 -80 6 -30 17
-82 26 -115 8 -33 17 -67 18 -75 2 -8 4 -15 5 -15 1 0 3 -11 6 -25 2 -14 7
-32 11 -40 3 -8 8 -24 10 -35 2 -11 6 -27 10 -35 3 -8 7 -18 8 -22 2 -5 4 -10
5 -13 1 -3 3 -8 4 -12 15 -59 28 -93 35 -93 4 0 8 -6 9 -12 1 -11 7 -43 11
-55 1 -2 1 -6 0 -9 0 -4 3 -10 8 -13 5 -3 15 -26 22 -51 7 -25 16 -47 20 -50
5 -5 49 -122 54 -145 1 -5 5 -12 8 -15 3 -3 38 -88 78 -190 40 -102 77 -194
81 -205 5 -11 25 -65 45 -120 20 -55 39 -107 42 -115 3 -8 7 -17 8 -20 1 -3 5
-14 9 -25 5 -11 21 -56 38 -100 17 -44 36 -93 43 -110 8 -16 11 -33 9 -37 -3
-4 0 -8 5 -8 6 0 11 -8 11 -18 0 -10 3 -22 8 -26 4 -4 8 -12 8 -17 1 -5 3 -11
4 -14 1 -3 3 -8 5 -12 1 -5 7 -21 13 -36 7 -16 12 -32 12 -36 0 -4 11 -31 25
-59 14 -29 25 -55 25 -58 0 -7 68 -167 101 -240 11 -22 19 -44 19 -48 0 -12
80 -197 126 -291 83 -168 169 -315 186 -315 4 0 7 -3 6 -7 -3 -15 14 -43 26
-43 7 0 18 -11 24 -25 7 -14 19 -28 27 -32 14 -5 38 -25 107 -90 14 -13 20
-13 32 -4 11 9 16 9 22 0 4 -8 3 -9 -4 -5 -7 4 -12 3 -12 -2 0 -12 42 -30 58
-25 6 3 9 10 6 15 -4 7 -2 8 5 4 9 -6 9 -11 0 -22 -9 -11 -7 -14 15 -14 14 0
26 -5 26 -11 0 -5 5 -7 10 -4 6 4 7 12 3 19 -4 7 1 2 12 -11 20 -22 22 -22 39
-5 12 12 16 13 14 3 -2 -8 6 -14 20 -16 14 -1 22 4 23 14 0 14 1 14 7 1 14
-30 49 -19 43 13 -1 5 3 6 9 2 6 -3 8 -11 5 -16 -4 -5 1 -9 10 -9 10 0 13 5 9
12 -5 7 -3 8 5 4 18 -12 83 3 75 16 -4 7 -3 8 4 4 7 -4 18 -4 25 1 6 4 17 8
22 8 6 1 9 7 7 14 -1 7 2 10 8 6 5 -3 10 0 10 7 0 10 2 10 9 -1 7 -11 11 -9
20 8 7 12 16 19 21 16 5 -3 15 4 23 15 7 11 17 17 20 13 4 -3 7 2 7 12 0 10 3
15 7 12 9 -9 53 33 53 50 0 8 4 12 8 9 8 -5 49 35 43 43 -1 2 3 8 11 13 9 6 5
8 -12 4 -14 -3 -20 -3 -13 0 7 3 11 11 9 17 -1 7 -1 9 1 5 7 -11 27 -10 40 3
12 12 5 52 -7 44 -5 -3 -12 0 -16 6 -4 8 -3 9 4 5 8 -5 11 0 8 16 -2 13 1 29
6 36 6 6 7 12 3 12 -4 0 -2 6 4 14 7 8 21 13 32 11 11 -2 17 0 14 6 -4 5 0 9
7 10 10 0 10 2 -1 6 -11 5 -11 7 0 14 10 6 11 9 2 9 -7 0 -13 5 -13 11 0 5 4
8 8 5 4 -2 9 4 9 16 1 13 -3 18 -12 14 -8 -3 -17 -1 -20 4 -4 6 -11 10 -18 10
-6 0 -2 -7 9 -16 10 -8 13 -12 5 -8 -10 5 -12 3 -5 -7 12 -18 13 -70 2 -63 -5
3 -16 0 -25 -8 -14 -11 -15 -11 -8 2 11 17 15 99 6 115 -9 16 -10 35 -1 30 4
-3 14 3 21 12 12 14 11 15 -9 9 -20 -7 -24 -3 -21 20 0 4 -5 11 -13 16 -10 8
-9 9 4 4 10 -3 20 -1 23 4 6 9 -8 14 -28 11 -5 -1 -5 4 -1 10 5 8 2 10 -8 7
-10 -4 -14 0 -13 15 1 12 -9 32 -22 45 -13 12 -23 27 -23 33 0 6 -5 7 -12 3
-6 -4 -8 -3 -5 2 3 6 -9 26 -26 45 -60 66 -61 69 -37 64 13 -3 20 0 17 8 -2 7
-12 12 -23 12 -10 0 -19 7 -19 15 -1 8 -6 14 -13 13 -6 -2 -9 4 -6 11 5 12 9
12 23 -2 11 -11 14 -20 7 -25 -6 -4 1 -5 17 -3 18 3 25 1 21 -6 -5 -7 -2 -8 6
-3 9 6 11 4 5 -5 -6 -9 -4 -11 6 -6 8 4 4 -1 -9 -11 -22 -18 -22 -19 -3 -20
11 -1 20 1 18 5 -1 4 3 7 8 7 6 0 9 -8 9 -18 -1 -13 4 -16 17 -12 19 6 45 -26
31 -39 -3 -4 1 -4 11 0 10 3 17 1 17 -6 0 -6 -4 -9 -9 -5 -5 3 -13 0 -17 -6
-5 -8 -3 -9 6 -4 9 6 11 4 5 -5 -6 -9 -4 -11 5 -5 9 6 11 4 5 -5 -5 -9 -4 -11
3 -6 19 11 35 -3 22 -19 -8 -10 -8 -15 0 -20 6 -4 9 -13 6 -21 -3 -8 0 -13 7
-11 6 1 11 -9 11 -25 -1 -16 3 -28 9 -28 6 0 2 -7 -9 -16 -18 -15 -18 -15 3
-5 19 10 21 9 18 -8 -4 -20 21 -49 32 -37 3 3 1 6 -7 6 -10 0 -10 3 -1 14 8 9
8 16 2 20 -5 4 -8 16 -6 27 4 17 2 19 -10 9 -8 -7 -15 -10 -15 -7 0 3 -3 14
-6 24 -4 13 -3 15 4 4 7 -9 12 -10 16 -2 4 6 2 11 -4 11 -7 0 -9 8 -5 19 3 12
0 21 -10 25 -8 3 -15 9 -14 13 3 19 -2 43 -8 42 -5 -1 -15 -1 -23 0 -12 1 -12
3 -2 9 9 7 7 15 -12 35 -13 14 -21 29 -17 33 3 4 0 4 -6 0 -7 -4 -13 -3 -13 3
0 6 -6 8 -14 5 -11 -4 -13 0 -9 16 3 11 2 20 -3 18 -5 -2 -10 2 -12 7 -4 12
-43 30 -72 34 -5 0 -10 8 -10 17 0 10 -6 13 -18 10 -24 -8 -42 27 -149 284
-47 113 -93 224 -104 247 -10 23 -19 46 -19 50 -1 4 -9 26 -20 48 -11 22 -19
44 -20 48 0 5 -6 23 -14 40 -8 18 -33 84 -56 147 -24 63 -50 131 -58 150 -9
19 -16 44 -17 54 -1 11 -7 22 -13 24 -7 2 -12 14 -12 27 0 13 -4 27 -10 30 -5
3 -10 16 -10 29 0 12 -4 26 -9 32 -7 7 -33 75 -36 94 0 3 -6 15 -13 28 -7 12
-10 22 -6 22 3 0 1 7 -6 15 -7 8 -9 15 -6 15 4 0 0 10 -8 22 -9 12 -16 28 -16
35 0 7 -9 32 -19 56 -11 23 -31 71 -44 107 -14 36 -34 83 -43 105 -10 22 -18
42 -19 45 -1 3 -9 22 -18 44 -9 21 -17 42 -17 47 0 5 -4 17 -10 27 -9 16 -27
63 -91 237 -31 83 -69 220 -88 315 -6 30 -14 66 -17 80 -3 14 -7 36 -10 50 -2
14 -6 34 -9 46 -3 12 -7 39 -10 60 -3 21 -8 50 -12 64 -3 14 -7 34 -9 45 -1
11 -5 29 -7 40 -3 12 -8 48 -12 80 -4 33 -10 64 -13 70 -3 5 -8 28 -10 50 -2
22 -7 41 -12 43 -5 2 -7 9 -4 17 3 7 -2 42 -10 77 -9 34 -18 74 -20 88 -3 14
-10 43 -16 65 -6 22 -13 47 -15 55 -2 8 -4 17 -5 20 -1 3 -3 10 -5 15 -1 6 -3
12 -4 15 -2 3 -4 12 -6 20 -10 39 -15 57 -24 88 -5 18 -11 36 -12 40 -1 4 -3
12 -4 17 -18 65 -27 106 -24 110 6 5 120 -99 258 -235 64 -63 141 -135 170
-160 29 -25 62 -52 73 -62 10 -9 38 -31 61 -50 23 -18 74 -66 112 -107 39 -41
91 -96 118 -124 26 -27 47 -53 47 -58 0 -5 4 -9 9 -9 4 0 24 -15 43 -32 62
-58 115 -104 159 -139 24 -18 46 -36 49 -39 3 -3 26 -21 53 -40 26 -18 47 -37
47 -42 0 -4 5 -8 11 -8 9 0 166 -137 238 -208 8 -8 39 -32 70 -55 31 -23 58
-44 61 -47 3 -3 23 -18 46 -33 22 -15 49 -35 60 -45 10 -9 35 -29 54 -43 38
-29 50 -39 236 -214 133 -125 190 -181 335 -331 48 -49 124 -123 170 -164 45
-41 142 -134 213 -207 72 -72 160 -155 196 -184 36 -29 66 -57 68 -61 2 -4 10
-8 18 -8 8 0 14 -4 14 -8 0 -4 12 -15 28 -25 15 -9 45 -34 68 -54 22 -21 71
-65 109 -98 37 -33 78 -69 91 -80 12 -12 37 -32 55 -45 56 -42 202 -166 251
-212 10 -10 20 -18 23 -18 9 0 78 -64 179 -165 50 -49 140 -154 202 -232 102
-132 195 -241 269 -318 43 -44 83 -97 154 -203 35 -52 69 -101 76 -110 8 -10
30 -37 50 -62 19 -25 100 -110 178 -190 79 -80 161 -167 184 -195 23 -27 51
-61 63 -75 12 -14 40 -47 63 -73 23 -27 74 -81 112 -121 64 -66 144 -153 214
-231 48 -53 201 -255 201 -264 0 -5 4 -11 8 -13 11 -4 72 -94 72 -106 0 -5 9
-17 20 -27 11 -10 20 -24 20 -31 0 -7 3 -14 8 -16 4 -2 36 -43 72 -93 72 -100
84 -116 120 -154 14 -14 52 -60 85 -101 33 -41 62 -77 65 -80 14 -14 50 -70
50 -79 0 -5 3 -11 8 -13 4 -1 31 -38 60 -81 65 -95 70 -101 157 -192 39 -40
75 -80 80 -88 6 -8 41 -61 79 -118 38 -57 72 -106 75 -109 3 -3 33 -36 66 -75
33 -38 62 -72 65 -75 4 -3 19 -23 35 -45 17 -22 32 -42 35 -45 6 -5 125 -178
242 -352 33 -48 96 -160 142 -250 46 -90 93 -181 106 -203 60 -104 92 -172
124 -262 54 -155 76 -213 108 -283 26 -56 46 -129 74 -270 13 -67 5 -759 -11
-839 -2 -10 -7 -41 -11 -68 -20 -136 -197 -587 -334 -848 -43 -82 -125 -242
-182 -355 -58 -113 -114 -221 -125 -240 -11 -19 -35 -62 -53 -95 -54 -96 -159
-263 -224 -355 -59 -82 -173 -210 -188 -210 -5 0 -16 -8 -26 -17 -10 -10 -38
-34 -63 -54 -101 -83 -256 -211 -277 -229 -13 -11 -26 -20 -28 -20 -3 0 -14
-8 -25 -18 -10 -11 -32 -25 -47 -33 -15 -8 -29 -16 -32 -19 -3 -3 -48 -33
-100 -65 -52 -33 -149 -95 -215 -139 -106 -70 -231 -149 -374 -235 -24 -14
-49 -32 -56 -38 -8 -7 -16 -13 -20 -13 -3 0 -18 -8 -33 -19 -98 -67 -183 -121
-192 -121 -5 0 -10 -5 -10 -12 0 -6 -3 -9 -6 -6 -3 4 -21 -4 -40 -17 -19 -13
-48 -30 -64 -37 -17 -7 -30 -16 -30 -20 0 -5 -4 -8 -10 -8 -5 0 -56 -25 -112
-57 -57 -31 -132 -72 -168 -91 -36 -19 -94 -52 -130 -72 -36 -20 -85 -46 -110
-58 -25 -13 -52 -27 -60 -32 -35 -21 -143 -70 -155 -70 -7 0 -15 -4 -17 -8 -4
-13 -241 -103 -304 -117 -48 -10 -435 -149 -529 -190 -16 -7 -70 -27 -120 -45
-49 -17 -99 -35 -110 -40 -24 -10 -114 -39 -141 -45 -10 -2 -35 -9 -54 -15
-19 -6 -62 -17 -95 -25 -169 -39 -313 -77 -430 -115 -136 -43 -319 -94 -370
-103 -17 -3 -55 -10 -85 -16 -30 -6 -68 -12 -85 -15 -16 -2 -30 -5 -30 -6 0
-1 -13 -3 -30 -6 -28 -4 -177 -37 -220 -50 -11 -3 -24 -6 -30 -8 -41 -9 -153
-39 -165 -44 -8 -3 -19 -4 -24 -3 -4 1 -14 -3 -20 -9 -7 -5 -15 -8 -18 -5 -3
3 -36 -1 -74 -9 -38 -8 -103 -17 -144 -21 -41 -4 -78 -9 -82 -12 -4 -2 -5 3
-2 11 3 8 14 18 25 21 11 4 17 10 14 15 -3 5 -1 10 5 12 10 3 180 168 180 174
0 2 17 21 38 42 44 46 123 134 172 192 19 24 50 59 68 80 17 21 32 43 32 49 0
6 4 11 8 11 4 0 36 39 71 86 35 47 70 92 77 99 8 7 14 16 14 20 0 5 5 12 35
48 6 7 22 28 35 47 13 19 27 37 30 40 3 3 17 21 30 40 13 19 29 40 36 47 6 6
25 34 43 62 18 28 37 51 43 51 5 0 6 5 3 10 -3 6 -1 10 5 10 6 0 8 4 5 10 -3
5 -2 10 3 10 5 0 42 51 83 113 40 61 77 114 81 115 5 2 8 10 8 18 0 8 5 14 11
14 5 0 8 4 5 9 -3 4 3 16 14 26 11 10 20 24 20 32 0 7 5 13 11 13 5 0 8 4 5 9
-3 5 1 12 10 15 8 3 12 10 9 16 -3 5 -1 10 4 10 6 0 11 5 11 11 0 6 7 17 15
26 8 8 13 18 10 23 -3 4 2 10 10 14 8 3 15 12 15 21 0 8 4 15 8 15 4 0 13 12
19 28 7 15 18 36 25 47 32 51 42 71 40 78 -1 4 3 7 9 7 5 0 8 4 4 9 -3 6 2 14
11 19 9 5 16 13 16 18 2 23 11 44 19 44 5 0 8 3 7 7 -2 9 34 85 43 93 3 3 12
22 20 42 7 21 17 38 22 38 4 0 5 5 2 10 -3 6 0 13 8 16 7 2 14 10 14 17 1 24
8 42 23 55 13 12 13 13 0 6 -13 -6 -13 -5 1 12 18 22 43 76 41 87 -1 4 3 7 9
7 5 0 8 4 4 9 -3 5 0 15 7 23 7 7 13 19 14 26 2 29 5 33 16 26 6 -4 8 -3 4 4
-3 6 -1 23 6 39 6 15 12 35 13 43 0 8 6 14 12 13 6 -1 9 6 6 17 -3 11 0 20 6
20 5 0 8 6 5 14 -3 8 -1 17 5 20 6 4 8 13 5 20 -3 8 -1 17 5 21 6 3 11 16 11
29 0 12 3 26 7 30 5 4 8 11 9 14 3 37 17 92 24 92 4 0 6 9 3 20 -3 11 -1 20 5
20 6 0 9 8 7 18 -1 9 0 22 4 27 3 6 7 15 8 20 3 12 22 85 27 100 1 6 8 30 15
55 6 25 16 53 22 63 5 10 7 22 4 27 -4 6 -2 10 4 10 5 0 8 9 6 20 -2 11 0 20
6 20 5 0 9 8 9 18 0 10 6 24 13 31 10 11 9 12 -1 6 -12 -6 -12 -3 -2 15 6 12
14 34 16 48 3 15 8 29 12 32 4 3 8 16 10 30 1 13 8 28 15 32 9 6 8 8 -3 8 -12
0 -13 2 -1 9 7 5 11 13 7 19 -3 6 -3 13 1 15 6 4 9 92 3 92 -1 0 -3 13 -5 29
-2 16 -10 33 -17 37 -10 7 -10 9 2 9 12 1 11 3 -3 11 -9 6 -15 14 -12 20 4 5
1 9 -4 9 -6 0 -11 7 -11 16 0 8 -4 13 -9 10 -9 -6 -34 18 -26 25 2 3 -4 6 -13
7 -36 4 -52 8 -59 17 -4 4 -2 5 6 0 9 -5 12 -4 8 2 -3 5 -37 8 -74 7 -66 -3
-127 11 -118 25 2 4 -2 8 -10 8 -8 0 -11 -5 -8 -10 4 -6 -4 -3 -16 5 -14 10
-35 14 -53 11 -23 -3 -28 -1 -22 9 6 10 4 10 -9 -1 -9 -7 -28 -11 -41 -9 -17
4 -23 1 -19 -9 4 -9 0 -11 -11 -7 -9 4 -16 1 -16 -6 0 -9 -3 -10 -14 -1 -11 9
-15 8 -21 -6 -6 -16 -7 -16 -15 -2 -10 18 -55 15 -67 -4 -4 -6 0 -8 11 -4 10
4 15 3 11 -3 -3 -6 -18 -7 -32 -4 -22 6 -25 4 -20 -10 4 -10 3 -15 -3 -11 -5
3 -15 -5 -21 -19 -7 -14 -16 -23 -20 -20 -5 3 -9 0 -9 -6 0 -6 -4 -9 -9 -5 -5
3 -12 -3 -16 -13 -3 -11 -15 -23 -27 -29 -19 -8 -20 -10 -4 -16 10 -4 15 -3
11 3 -3 6 -1 10 5 10 7 0 10 -6 7 -12 -2 -7 -10 -12 -17 -10 -6 1 -10 -3 -7
-10 2 -7 15 -12 28 -11 l24 3 -24 -14 c-18 -10 -20 -15 -10 -19 9 -3 10 -6 2
-6 -7 -1 -20 7 -30 18 -23 24 -69 40 -57 20 6 -12 5 -12 -9 0 -12 9 -17 10
-17 2 0 -7 -3 -10 -8 -7 -4 2 -16 -2 -27 -10 -10 -8 -15 -14 -11 -14 4 0 0 -7
-8 -16 -9 -8 -14 -19 -11 -24 3 -5 1 -11 -5 -15 -6 -4 -8 -10 -5 -15 3 -4 -2
-26 -10 -49 -8 -23 -15 -45 -16 -49 -1 -4 -3 -11 -5 -17 -6 -17 -45 -159 -49
-178 -8 -37 -18 -63 -46 -125 -16 -35 -29 -67 -29 -72 0 -4 -16 -40 -35 -79
-19 -39 -35 -73 -35 -75 0 -6 -57 -134 -75 -169 -8 -16 -15 -35 -15 -43 0 -8
-3 -14 -7 -14 -9 0 -33 -49 -33 -67 0 -7 -4 -13 -10 -13 -5 0 -10 -9 -10 -20
0 -11 -4 -20 -9 -20 -5 0 -12 -10 -16 -22 -4 -13 -8 -25 -9 -28 -16 -43 -126
-233 -138 -238 -4 -2 -6 -8 -2 -13 3 -5 1 -9 -5 -9 -6 0 -20 -17 -31 -38 -11
-20 -32 -55 -45 -77 -13 -22 -37 -64 -52 -93 -15 -28 -30 -52 -34 -52 -4 0
-10 -14 -14 -30 -4 -17 -10 -30 -15 -30 -8 0 -23 -33 -25 -52 0 -4 -6 -13 -12
-20 -7 -6 -13 -18 -13 -25 0 -7 -4 -13 -9 -13 -8 0 -24 -37 -22 -52 1 -5 -3
-8 -8 -8 -5 0 -12 -11 -15 -24 -5 -21 -57 -96 -122 -176 -34 -42 -87 -107
-102 -128 -9 -12 -22 -28 -28 -35 -23 -27 -94 -127 -94 -132 0 -3 -5 -11 -10
-18 -20 -24 -140 -189 -140 -192 0 -2 -10 -15 -22 -27 -13 -13 -45 -50 -73
-81 -50 -59 -120 -137 -185 -208 -58 -64 -65 -73 -63 -81 2 -5 -1 -7 -6 -5 -5
1 -20 -10 -34 -25 -14 -16 -24 -28 -23 -28 14 0 -239 -257 -327 -334 -31 -26
-54 -53 -50 -59 3 -6 1 -7 -5 -3 -13 8 -52 -23 -52 -42 0 -7 -3 -11 -7 -9 -11
7 -33 -19 -25 -28 4 -4 2 -6 -3 -5 -20 4 -36 0 -31 -8 3 -5 -13 -24 -35 -42
-36 -32 -54 -61 -27 -44 6 4 8 3 5 -4 -4 -5 -16 -8 -27 -5 -16 4 -19 2 -13
-12 4 -13 3 -16 -5 -11 -8 5 -10 1 -5 -10 4 -12 3 -15 -5 -10 -7 4 -12 3 -12
-1 0 -5 -127 -9 -282 -10 -259 -1 -478 -8 -568 -18 -19 -3 -143 -5 -274 -5
-229 -1 -241 0 -265 20 -14 11 -34 23 -43 27 -10 3 -18 13 -19 22 0 10 -2 11
-6 4 -3 -10 -8 -9 -20 2 -8 8 -19 13 -24 10 -5 -4 -9 -2 -9 3 0 5 -13 15 -30
22 -16 7 -30 17 -30 22 0 5 -4 7 -10 3 -5 -3 -18 3 -30 15 -11 11 -27 20 -36
20 -8 0 -12 5 -9 10 3 6 1 11 -4 11 -26 3 -30 4 -37 12 -4 4 -16 7 -26 7 -10
0 -18 4 -18 10 0 5 -3 9 -7 8 -13 -4 -102 26 -98 32 2 4 -12 12 -31 19 -18 7
-34 17 -34 22 0 5 -9 9 -21 9 -11 0 -17 5 -14 10 3 6 -3 10 -14 10 -12 0 -21
4 -21 10 0 5 -11 12 -25 16 -14 3 -25 13 -25 21 0 8 -5 11 -10 8 -5 -3 -10 -1
-10 5 0 6 -4 9 -8 6 -5 -3 -15 4 -22 15 -8 10 -19 19 -25 19 -5 0 -23 11 -39
25 -16 14 -33 25 -37 25 -4 0 -18 10 -31 23 -24 24 -57 42 -71 38 -5 -1 -6 2
-3 7 2 4 -15 20 -40 36 -24 15 -44 32 -44 38 0 5 -4 6 -10 3 -5 -3 -10 2 -10
11 0 10 -3 15 -6 11 -3 -3 -17 5 -31 19 -13 13 -29 24 -35 24 -6 0 -9 2 -6 5
3 3 -24 35 -59 71 -34 37 -63 70 -63 76 0 5 -4 6 -10 3 -5 -3 -10 1 -10 10 0
9 -4 13 -10 10 -5 -3 -10 -1 -10 4 0 6 -13 24 -30 39 -16 16 -30 34 -30 41 0
6 -3 10 -7 10 -5 -1 -15 -1 -23 0 -13 1 -13 2 0 11 12 8 13 10 1 10 -15 0
-151 137 -151 153 0 5 -12 21 -27 36 -41 40 -62 69 -56 75 4 3 -1 6 -9 6 -9 0
-18 9 -21 21 -3 12 -10 18 -17 14 -6 -3 -9 -3 -8 2 3 9 -15 33 -45 61 -10 9
-37 42 -60 72 -55 72 -63 80 -72 72 -4 -4 -5 -2 -3 3 2 6 -18 38 -44 71 -26
34 -44 65 -40 69 4 5 2 5 -4 2 -14 -8 -37 17 -26 28 4 5 2 5 -5 1 -12 -7 -36
26 -28 38 3 3 2 4 -1 1 -8 -5 -54 45 -54 58 0 5 -4 5 -10 2 -6 -3 -10 4 -10
16 0 12 -3 19 -7 16 -6 -7 -27 23 -39 55 -3 10 -10 18 -15 18 -5 0 -9 7 -9 15
0 9 -9 25 -20 37 -10 12 -17 25 -14 30 3 4 0 8 -5 8 -6 0 -11 9 -11 21 0 11
-5 17 -10 14 -6 -3 -10 1 -10 10 0 9 -7 27 -16 40 -9 14 -12 25 -8 25 5 0 4 4
-2 8 -13 9 -63 85 -85 130 -8 18 -18 29 -22 25 -4 -3 -7 2 -8 13 0 10 -9 33
-20 49 -10 17 -24 42 -30 58 -6 15 -15 27 -20 27 -5 0 -9 7 -9 15 0 9 -10 32
-22 53 -13 20 -32 55 -43 77 -11 22 -22 42 -25 45 -11 11 -51 90 -45 90 4 0
-1 7 -9 16 -9 8 -16 24 -16 35 0 10 -5 19 -12 19 -6 0 -8 3 -5 7 4 3 2 12 -4
20 -6 7 -8 13 -3 13 5 0 3 4 -3 8 -7 5 -14 20 -15 35 -1 15 -8 29 -16 32 -7 3
-11 9 -8 14 4 5 0 15 -7 23 -8 7 -13 21 -11 31 1 9 -2 15 -7 11 -5 -3 -9 4 -9
15 0 12 -4 21 -10 21 -5 0 -10 7 -10 15 0 8 -9 30 -20 50 -11 19 -20 37 -21
40 -6 30 -13 45 -20 45 -5 0 -6 7 -3 15 3 8 -1 22 -10 31 -9 8 -14 20 -11 25
4 5 1 9 -4 9 -6 0 -11 10 -11 23 0 13 -5 28 -10 33 -10 10 -21 44 -22 72 -1 6
-5 12 -10 12 -5 0 -6 11 -4 25 3 14 1 23 -5 20 -8 -5 -14 23 -10 48 0 4 -3 7
-7 7 -5 0 -9 6 -10 13 -2 21 -7 42 -14 53 -4 6 -9 21 -12 35 -2 13 -10 38 -17
54 -7 17 -12 33 -11 38 1 4 -2 7 -6 7 -5 0 -9 6 -9 13 -2 20 -39 117 -44 112
-3 -2 -6 8 -7 22 -1 15 -5 29 -10 32 -7 6 -14 28 -15 49 0 6 -5 12 -10 12 -6
0 -7 3 -4 7 4 3 1 16 -7 28 -8 12 -16 30 -18 41 -2 10 -9 25 -16 32 -7 8 -10
18 -7 23 4 5 1 9 -5 9 -6 0 -8 5 -5 10 3 6 1 10 -5 10 -6 0 -9 4 -5 9 3 5 1
12 -5 16 -5 3 -10 13 -10 21 0 9 -7 22 -15 31 -8 8 -13 19 -10 24 4 5 2 9 -2
9 -5 0 -17 15 -28 33 -21 36 -60 76 -78 80 -7 1 -18 10 -25 20 -7 9 -17 15
-22 12 -5 -3 -17 2 -27 12 -10 10 -30 18 -45 17 -16 -1 -28 2 -28 7 0 4 -27 7
-60 6 -33 -1 -60 -4 -60 -8 0 -4 -11 -6 -25 -4 -14 1 -25 -2 -25 -7 0 -5 -4
-6 -10 -3 -5 3 -10 2 -10 -3 0 -6 -26 -18 -57 -28 -40 -13 -71 -31 -102 -63
-26 -25 -45 -46 -43 -48 5 -6 -10 -53 -17 -53 -8 0 -9 -10 -11 -110 -2 -83 0
-101 15 -112 6 -5 5 -8 -3 -8 -7 0 -10 -4 -7 -10 8 -13 17 -50 18 -77 1 -13 5
-23 9 -23 4 0 8 -13 8 -30 0 -16 5 -30 12 -30 6 0 9 -3 5 -6 -3 -3 0 -26 8
-50 7 -24 11 -44 8 -44 -3 0 0 -7 7 -15 6 -8 9 -19 5 -25 -3 -5 -1 -10 4 -10
6 0 10 -3 10 -7 -1 -5 0 -11 1 -15 3 -9 4 -12 14 -58 5 -19 13 -41 18 -47 6
-7 8 -20 4 -28 -3 -8 0 -15 6 -15 6 0 8 -3 5 -7 -4 -3 -2 -12 4 -20 6 -7 9
-22 6 -33 -3 -11 -1 -20 5 -20 6 0 7 -7 4 -16 -3 -8 -2 -12 4 -9 9 5 14 -16
13 -52 -1 -7 3 -13 8 -13 5 0 6 -7 3 -15 -4 -8 -1 -15 6 -15 6 0 8 -5 5 -10
-4 -6 -1 -18 6 -26 6 -8 9 -17 6 -21 -4 -3 -2 -12 4 -20 6 -7 8 -13 4 -13 -4
0 -2 -6 4 -14 6 -7 12 -25 13 -40 1 -14 5 -26 9 -26 3 0 6 -6 7 -12 3 -42 7
-58 14 -58 4 0 8 -13 8 -30 0 -16 5 -30 12 -30 6 0 8 -3 5 -7 -4 -3 -2 -12 5
-20 6 -7 8 -16 5 -20 -3 -3 1 -19 9 -35 8 -16 12 -33 9 -37 -3 -5 0 -11 5 -13
6 -2 12 -10 13 -18 2 -8 6 -21 10 -27 5 -7 5 -18 2 -23 -3 -6 1 -13 10 -16 13
-6 14 -8 3 -15 -7 -5 -8 -9 -2 -9 6 0 17 -18 24 -40 7 -22 18 -40 24 -40 6 0
4 -5 -4 -10 -11 -7 -11 -10 -2 -10 7 0 10 -4 7 -10 -3 -5 -1 -10 5 -10 7 0 10
-6 7 -14 -3 -8 1 -17 9 -20 9 -3 13 -10 10 -14 -3 -5 4 -23 15 -41 11 -18 17
-36 14 -42 -4 -5 -1 -9 6 -9 7 0 9 -3 6 -7 -4 -3 -1 -13 7 -22 8 -9 15 -19 15
-23 2 -17 36 -88 43 -88 4 0 5 -9 3 -19 -2 -11 3 -22 11 -25 8 -3 14 -12 14
-21 0 -8 4 -15 8 -15 4 0 9 -10 9 -22 1 -13 7 -24 13 -26 5 -2 10 -15 10 -28
0 -14 4 -22 10 -19 6 3 10 -3 10 -14 0 -11 5 -23 10 -26 6 -3 10 -15 10 -26 0
-13 4 -18 12 -13 8 5 9 2 5 -10 -4 -10 -1 -19 8 -22 8 -4 12 -10 9 -15 -3 -5
0 -9 6 -9 6 0 8 -5 4 -11 -3 -6 -3 -14 2 -18 5 -3 15 -17 22 -30 11 -19 11
-22 0 -16 -7 3 -4 -2 7 -12 11 -10 21 -27 23 -37 2 -10 10 -25 18 -33 8 -8 12
-18 9 -22 -2 -5 4 -17 14 -27 9 -11 16 -25 13 -32 -2 -6 2 -12 8 -12 7 0 10
-7 6 -17 -4 -10 -4 -14 0 -10 8 8 44 -55 37 -65 -2 -5 3 -8 11 -8 8 0 13 -6
10 -13 -2 -7 4 -22 15 -34 11 -11 17 -24 14 -27 -4 -3 -1 -6 6 -6 7 0 9 -4 6
-10 -3 -5 -2 -10 3 -10 9 0 25 -37 23 -52 -1 -5 4 -7 11 -5 6 1 14 -7 16 -18
2 -11 9 -23 14 -26 5 -3 10 -15 11 -27 0 -12 3 -19 5 -17 7 6 30 -19 25 -28
-2 -4 0 -7 4 -7 5 0 17 -17 28 -37 11 -21 26 -44 33 -51 29 -32 71 -100 64
-107 -4 -5 -2 -6 3 -3 6 3 21 -8 35 -25 14 -17 18 -27 10 -22 -8 4 -4 -3 10
-17 30 -29 60 -66 60 -73 0 -3 9 -14 20 -25 12 -12 18 -26 14 -32 -4 -6 -3 -8
3 -5 6 4 19 -5 29 -20 11 -14 27 -33 37 -42 9 -8 17 -21 17 -28 0 -6 9 -15 20
-18 11 -4 18 -11 15 -16 -4 -5 -1 -9 6 -9 7 0 10 -2 7 -5 -3 -3 17 -28 43 -56
27 -27 49 -54 49 -60 0 -6 5 -7 10 -4 6 3 10 2 10 -4 0 -5 28 -38 63 -73 34
-34 61 -66 59 -71 -1 -5 2 -6 8 -2 5 3 10 1 10 -4 0 -6 7 -11 17 -11 9 0 13
-3 10 -6 -7 -7 30 -44 45 -44 4 0 8 -8 8 -17 0 -9 3 -13 7 -10 3 4 16 -5 29
-18 13 -14 28 -25 34 -25 5 0 10 -7 10 -16 0 -8 4 -13 8 -10 5 3 15 -4 22 -15
8 -10 18 -19 23 -19 4 0 23 -15 42 -34 18 -19 36 -32 38 -30 3 3 16 -9 31 -26
14 -17 26 -26 26 -18 0 7 9 0 20 -17 11 -16 20 -26 20 -21 0 5 8 -1 19 -12 10
-12 23 -22 30 -22 6 0 11 -6 11 -13 0 -14 -38 -14 -115 -1 -16 2 -46 7 -65 10
-19 2 -44 8 -55 11 -24 9 -15 7 -105 22 -41 7 -84 15 -95 18 -11 2 -40 8 -65
13 -25 5 -90 24 -145 43 -90 32 -163 54 -205 62 -8 2 -16 4 -17 4 -2 1 -5 1
-8 2 -16 1 -154 53 -207 78 -56 25 -116 47 -333 123 -74 26 -178 69 -270 112
-38 18 -88 39 -110 47 -22 8 -43 18 -47 24 -4 5 -8 7 -8 3 0 -8 -253 79 -324
112 -27 12 -86 40 -130 61 -45 21 -85 39 -89 39 -5 0 -23 6 -40 14 -18 8 -66
26 -107 41 -89 32 -233 92 -275 115 -53 29 -147 77 -250 128 -117 58 -195 104
-355 212 -63 42 -151 98 -195 125 -124 74 -250 157 -253 166 -2 5 -9 9 -16 9
-7 0 -21 8 -32 18 -44 41 -355 246 -492 324 -61 35 -183 125 -252 188 -30 27
-59 53 -65 57 -52 40 -132 109 -190 164 -122 117 -164 155 -285 259 -145 125
-224 200 -273 263 -12 16 -38 45 -57 67 -20 21 -50 56 -68 78 -19 22 -44 53
-58 69 -14 15 -41 55 -61 88 -20 33 -100 154 -177 268 -78 115 -145 217 -151
228 -5 10 -13 19 -17 19 -5 0 -8 6 -8 14 0 8 -4 16 -8 18 -7 3 -82 151 -82
163 0 3 -29 67 -64 143 -35 75 -71 153 -80 173 -26 60 -120 352 -131 409 -2 8
-4 16 -4 18 -1 1 -1 3 0 5 0 1 -9 26 -20 55 -11 28 -19 52 -16 52 2 0 -5 30
-15 68 -16 59 -30 121 -45 202 -3 14 -7 36 -9 50 -8 38 -19 132 -20 163 -1 15
-3 27 -6 27 -9 0 -13 156 -13 475 0 367 5 438 38 570 14 55 27 107 29 115 2 8
9 35 16 60 7 25 14 52 15 60 12 53 47 163 65 205 12 28 29 68 38 90 9 21 48
100 86 175 94 184 174 343 241 479 51 105 95 177 205 336 23 33 46 62 51 63 5
2 9 8 9 13 0 9 45 75 78 115 5 5 14 20 21 31 6 12 17 27 24 35 7 7 38 49 69
93 74 105 166 221 226 283 12 12 22 26 22 30 0 4 20 28 43 53 23 26 60 69 82
95 35 43 83 96 200 219 157 167 314 350 358 418 10 16 26 37 35 47 9 9 37 41
62 70 25 29 78 84 119 124 77 74 157 154 300 300 46 47 115 107 155 133 39 27
73 50 76 53 3 3 43 35 90 70 47 36 87 67 90 70 3 3 30 25 60 49 60 48 71 58
143 126 26 25 50 45 52 45 3 0 17 13 32 28 24 25 100 90 182 157 13 11 63 53
110 94 98 83 159 136 180 153 38 32 110 93 142 121 33 30 69 59 128 104 13 10
37 30 55 44 17 14 108 84 201 154 94 71 175 134 181 140 6 5 28 24 50 40 21
17 111 89 200 160 242 194 227 183 427 332 21 15 48 36 60 46 12 10 76 57 142
105 107 77 283 208 310 229 6 5 51 37 100 73 104 74 310 229 341 256 12 11 46
39 75 64 29 25 76 66 104 91 91 85 268 229 415 340 208 157 189 142 303 235 9
8 21 14 26 14 5 0 11 3 13 8 2 4 30 27 63 51 33 25 62 48 63 53 2 4 8 8 14 8
6 0 27 14 48 30 21 17 42 30 48 30 5 0 13 7 16 16 4 9 9 14 12 11 4 -3 11 -1
18 4 6 6 63 46 126 91 63 44 117 84 118 89 2 5 13 9 25 9 11 0 18 3 14 6 -3 4
20 27 51 53 31 25 64 53 72 61 18 17 136 122 220 195 30 26 70 63 88 82 18 18
38 33 43 33 6 0 8 4 5 9 -4 5 -2 11 4 13 5 1 83 75 173 163 180 176 390 375
396 375 2 0 -1 -6 -6 -12z m-1658 -4418 c3 -5 1 -10 -4 -10 -6 0 -11 5 -11 10
0 6 2 10 4 10 3 0 8 -4 11 -10z m4722 -107 c-4 -3 0 -15 10 -25 9 -10 12 -18
7 -18 -12 0 -34 36 -27 44 4 3 9 6 11 6 3 0 2 -3 -1 -7z m-4706 -20 c13 -16
12 -17 -3 -4 -17 13 -22 21 -14 21 2 0 10 -8 17 -17z m26 -68 c0 -8 -4 -12 -9
-9 -5 3 -6 10 -3 15 9 13 12 11 12 -6z m4728 -44 c3 -5 2 -12 -3 -15 -5 -3 -9
1 -9 9 0 17 3 19 12 6z m-4655 -57 c0 -8 -19 -13 -24 -6 -3 5 1 9 9 9 8 0 15
-2 15 -3z m46 -89 c-1 -8 -5 -17 -8 -21 -5 -4 -4 16 1 34 3 9 9 -1 7 -13z
m678 -40 c-3 -8 -12 -11 -20 -8 -16 6 -16 6 -8 27 5 13 10 14 20 6 7 -7 10
-18 8 -25z m-539 5 c3 -5 1 -10 -4 -10 -6 0 -11 5 -11 10 0 6 2 10 4 10 3 0 8
-4 11 -10z m-60 -19 c3 -5 2 -12 -3 -15 -5 -3 -9 1 -9 9 0 17 3 19 12 6z m265
-36 c0 -7 -30 -13 -34 -7 -3 4 4 9 15 9 10 1 19 0 19 -2z m81 -38 c-6 -8 -8
-23 -4 -33 6 -17 5 -17 -10 -6 -15 13 -15 16 1 37 9 13 19 21 21 19 2 -2 -1
-10 -8 -17z m4139 -31 c0 -2 -8 -7 -17 -10 -10 -4 -14 -4 -10 0 4 4 1 14 -6
22 -10 13 -9 14 11 3 12 -6 22 -13 22 -15z m-41 -59 c-2 -1 -13 -9 -24 -17
-19 -14 -19 -14 -6 3 7 9 18 17 24 17 6 0 8 -1 6 -3z m-324 -225 c-3 -3 -11 0
-18 7 -9 10 -8 11 6 5 10 -3 15 -9 12 -12z"/>
<path d="M10865 17870 c-3 -5 -2 -10 4 -10 5 0 13 5 16 10 3 6 2 10 -4 10 -5
0 -13 -4 -16 -10z"/>
<path d="M12440 12384 c7 -10 22 -28 32 -39 50 -57 77 -93 73 -97 -3 -3 3 -13
14 -22 13 -12 21 -14 26 -6 4 6 1 9 -7 8 -7 -2 -12 3 -10 11 2 8 -3 18 -9 22
-10 6 -10 11 0 23 9 11 10 16 2 16 -6 0 -11 -6 -11 -12 0 -18 -35 34 -36 55
-1 9 -2 22 -3 28 0 6 -8 8 -17 5 -9 -4 -29 1 -43 11 -25 16 -26 16 -11 -3z
m66 -37 c2 -15 0 -15 -22 0 -29 19 -30 20 -2 18 12 -1 22 -9 24 -18z"/>
<path d="M8815 12208 c-11 -18 -20 -35 -20 -38 0 -3 -4 -11 -8 -17 -9 -14 -1
-33 13 -33 4 0 11 7 14 16 5 14 4 15 -9 4 -15 -12 -22 0 -7 14 4 4 7 11 8 14
2 18 17 41 23 38 4 -3 8 4 8 15 2 25 1 24 -22 -13z"/>
<path d="M8770 12111 c11 -21 10 -23 -4 -18 -9 4 -16 2 -16 -3 0 -14 27 -13
36 1 3 6 -1 18 -11 27 -16 16 -17 16 -5 -7z"/>
<path d="M12591 12117 c-9 -12 -6 -18 12 -30 15 -9 29 -12 38 -7 7 5 11 10 9
12 -3 2 -14 11 -26 21 -18 15 -23 15 -33 4z m29 -21 c14 -18 14 -18 -7 -6 -12
8 -19 18 -16 23 3 4 6 7 7 5 1 -2 8 -12 16 -22z"/>
<path d="M8708 12047 c7 -8 9 -17 6 -20 -3 -3 -3 -10 1 -16 4 -7 14 -6 29 4
12 8 26 12 31 8 4 -5 5 -2 1 5 -6 10 -13 10 -33 -3 -24 -16 -25 -16 -19 3 5
13 1 22 -10 26 -13 5 -14 4 -6 -7z"/>
<path d="M12593 12035 c0 -8 4 -15 9 -15 4 0 8 4 8 9 0 6 -4 12 -8 15 -5 3 -9
-1 -9 -9z"/>
<path d="M8587 11944 c-16 -13 -25 -24 -21 -24 4 0 17 9 29 20 18 17 24 18 40
7 12 -10 14 -16 7 -21 -7 -4 -12 -2 -12 3 0 6 -5 11 -11 11 -8 0 -8 -4 0 -14
6 -7 8 -22 4 -32 -6 -16 -5 -17 9 -4 9 8 14 18 12 22 -3 4 2 11 11 15 12 7 10
12 -13 25 -26 15 -28 15 -55 -8z"/>
<path d="M12599 11964 c-1 -2 -3 -8 -4 -14 -1 -5 -3 -11 -5 -12 -8 -11 -6 -40
6 -55 13 -17 13 -17 14 3 0 11 5 25 12 32 7 7 8 12 4 12 -5 0 -3 6 3 14 9 11
7 15 -9 19 -11 3 -21 3 -21 1z m17 -29 c1 -8 -4 -19 -11 -25 -10 -9 -13 -7
-10 7 2 10 4 20 5 23 1 3 1 10 0 15 -1 6 2 6 6 2 4 -4 9 -14 10 -22z"/>
<path d="M8576 11888 l-19 -33 26 28 c28 29 32 37 19 37 -4 0 -16 -15 -26 -32z"/>
<path d="M8065 11890 c3 -5 11 -10 16 -10 6 0 7 5 4 10 -3 6 -11 10 -16 10 -6
0 -7 -4 -4 -10z"/>
<path d="M8595 11880 c-3 -5 -1 -10 4 -10 6 0 11 5 11 10 0 6 -2 10 -4 10 -3
0 -8 -4 -11 -10z"/>
<path d="M8495 11870 c3 -5 14 -10 23 -10 15 0 15 2 2 10 -20 13 -33 13 -25 0z"/>
<path d="M8193 11848 c1 -16 5 -28 9 -28 10 0 9 9 -2 35 -8 17 -8 16 -7 -7z"/>
<path d="M8540 11862 c0 -5 -12 -14 -26 -21 -15 -6 -24 -14 -21 -18 4 -3 13 0
21 6 8 7 19 10 23 8 5 -3 10 3 10 14 1 10 0 19 -3 19 -2 0 -4 -4 -4 -8z"/>
<path d="M8223 11842 c0 -12 3 -19 6 -17 2 3 11 -1 20 -9 14 -12 18 -12 30 1
12 13 11 14 -7 9 -14 -5 -25 -1 -36 15 -15 22 -15 22 -13 1z"/>
<path d="M8250 11850 c0 -5 5 -10 11 -10 5 0 7 5 4 10 -3 6 -8 10 -11 10 -2 0
-4 -4 -4 -10z"/>
<path d="M8285 11850 c-3 -5 -1 -10 4 -10 6 0 11 5 11 10 0 6 -2 10 -4 10 -3
0 -8 -4 -11 -10z"/>
<path d="M8371 11853 c-1 -7 8 -17 19 -23 11 -6 18 -15 16 -19 -3 -4 1 -8 8
-8 11 0 12 4 3 19 -7 10 -17 18 -24 18 -6 0 -14 6 -16 13 -4 9 -6 9 -6 0z"/>
<path d="M8343 11838 c-20 -26 -26 -41 -15 -34 12 7 36 46 29 46 -3 0 -9 -6
-14 -12z"/>
<path d="M8357 11811 c-4 -17 -3 -21 5 -13 5 5 8 16 6 23 -3 8 -7 3 -11 -10z"/>
<path d="M8455 11810 c-3 -6 1 -7 9 -4 18 7 21 14 7 14 -6 0 -13 -4 -16 -10z"/>
<path d="M4890 11448 c-33 -8 -119 -47 -130 -58 -15 -15 -67 -37 -82 -35 -10
2 -18 -1 -18 -6 0 -5 -7 -9 -16 -9 -8 0 -53 -18 -99 -40 -80 -38 -131 -61
-147 -65 -5 -2 -9 -3 -10 -4 -2 -2 -14 -5 -28 -7 -13 -2 -27 -8 -30 -13 -3 -5
-16 -12 -30 -16 -13 -4 -30 -14 -38 -21 -7 -8 -20 -14 -28 -14 -8 0 -14 -5
-14 -11 0 -6 -7 -9 -15 -5 -8 3 -14 0 -12 -7 1 -7 -6 -11 -15 -11 -10 1 -18
-5 -18 -14 0 -8 -3 -13 -6 -10 -5 6 -60 -26 -91 -52 -7 -5 -16 -10 -22 -10 -5
0 -12 -7 -15 -16 -3 -8 -10 -13 -15 -9 -6 3 -15 -4 -21 -15 -6 -11 -16 -19
-23 -17 -7 1 -11 -3 -10 -10 2 -8 -4 -10 -14 -6 -11 4 -14 3 -9 -5 4 -7 1 -12
-8 -12 -9 0 -16 -5 -16 -10 0 -6 -8 -14 -17 -17 -10 -4 -28 -18 -40 -31 -13
-14 -23 -21 -23 -16 0 5 -7 -2 -16 -14 -8 -12 -20 -20 -25 -16 -5 3 -8 1 -7
-4 4 -12 -68 -83 -76 -75 -3 4 -6 -1 -6 -10 0 -9 -9 -22 -20 -29 -11 -7 -20
-19 -20 -26 0 -7 -4 -11 -9 -7 -6 3 -15 -5 -22 -17 -7 -13 -26 -37 -43 -53
-17 -17 -44 -48 -61 -69 -16 -22 -42 -52 -57 -67 -14 -15 -23 -30 -20 -33 3
-3 0 -6 -7 -6 -7 0 -10 -4 -6 -9 3 -5 -4 -12 -15 -16 -11 -4 -18 -10 -15 -15
3 -5 -3 -17 -15 -27 -11 -10 -20 -23 -20 -30 0 -7 -5 -13 -12 -13 -6 0 -9 -3
-5 -6 3 -3 -5 -18 -19 -32 -13 -15 -24 -32 -24 -39 0 -7 -4 -13 -10 -13 -5 0
-10 -6 -10 -14 0 -8 -7 -22 -16 -30 -8 -9 -12 -16 -7 -16 4 0 3 -4 -3 -8 -5
-4 -18 -24 -27 -44 -10 -21 -22 -38 -28 -38 -6 0 -7 -4 -4 -10 3 -5 1 -10 -5
-10 -6 0 -9 -4 -5 -10 3 -5 -3 -18 -15 -30 -11 -11 -17 -20 -14 -20 4 0 1 -6
-5 -13 -6 -8 -8 -17 -4 -20 3 -4 1 -7 -5 -7 -10 0 -23 -25 -21 -44 0 -5 -6
-13 -15 -18 -9 -5 -14 -13 -11 -19 4 -5 1 -9 -5 -9 -6 0 -9 -4 -6 -9 3 -5 -1
-14 -9 -21 -8 -7 -15 -17 -15 -22 0 -6 -10 -24 -22 -41 -13 -18 -16 -28 -7
-23 11 6 11 5 -1 -6 -8 -7 -16 -20 -18 -28 -2 -8 -9 -18 -15 -22 -7 -4 -8 -8
-4 -8 5 0 -1 -16 -12 -36 -12 -20 -20 -39 -17 -41 3 -3 -2 -12 -10 -20 -8 -9
-13 -22 -10 -29 3 -8 1 -14 -4 -14 -6 0 -10 -9 -10 -21 0 -11 -4 -18 -9 -15
-4 3 -8 -2 -8 -12 0 -9 -5 -31 -12 -49 -7 -18 -11 -35 -9 -37 1 -3 -6 -12 -17
-20 -11 -9 -14 -16 -8 -16 9 0 6 -11 -7 -35 -11 -20 -20 -44 -20 -55 0 -11 -4
-20 -10 -20 -5 0 -7 -7 -4 -15 4 -8 1 -15 -5 -15 -6 0 -10 -3 -9 -7 3 -9 -44
-156 -52 -163 -3 -3 -6 -12 -7 -20 -7 -48 -9 -56 -15 -61 -5 -3 -9 -17 -10
-32 -1 -15 -6 -27 -11 -27 -4 0 -5 -4 -2 -10 3 -5 0 -10 -7 -10 -10 0 -10 -2
1 -9 9 -6 10 -11 2 -15 -6 -4 -9 -12 -6 -17 4 -5 2 -9 -3 -9 -5 0 -9 -6 -9
-12 0 -7 -4 -26 -8 -43 -4 -16 -8 -41 -9 -55 -1 -14 -5 -31 -9 -37 -4 -6 -8
-23 -9 -37 -1 -14 -7 -26 -13 -26 -5 0 -3 -5 5 -10 8 -5 10 -10 4 -10 -6 0
-11 -6 -12 -12 -3 -34 -10 -66 -16 -76 -3 -6 -2 -14 4 -17 8 -5 8 -11 0 -19
-10 -13 -17 -47 -24 -124 -3 -24 -9 -49 -13 -55 -5 -7 -8 -30 -7 -52 0 -22 -4
-43 -10 -47 -8 -6 -8 -8 1 -8 8 0 9 -9 5 -27 -4 -16 -7 -37 -7 -48 1 -11 -3
-26 -8 -32 -6 -8 -6 -13 1 -13 6 0 7 -13 3 -32 -4 -18 -6 -51 -6 -73 1 -22 -4
-43 -10 -47 -7 -5 -7 -8 1 -8 12 0 12 -28 1 -47 -4 -6 -1 -14 5 -17 10 -4 10
-7 1 -12 -8 -3 -9 -15 -3 -35 5 -16 6 -29 2 -29 -4 0 -6 -33 -5 -72 1 -43 -3
-79 -10 -87 -8 -10 -8 -13 -1 -8 8 4 11 -15 11 -63 0 -39 3 -73 6 -77 4 -3 2
-12 -4 -20 -6 -7 -7 -13 -2 -13 5 0 9 -21 8 -46 0 -25 3 -48 7 -50 4 -3 8 -10
8 -15 0 -6 -5 -7 -11 -3 -7 4 -7 -1 1 -16 7 -12 10 -33 7 -46 -2 -13 -1 -24 4
-24 4 0 6 -8 4 -17 -1 -10 2 -26 7 -37 7 -14 7 -16 -2 -11 -9 6 -9 2 0 -15 6
-12 10 -31 7 -41 -3 -11 0 -19 6 -19 7 0 5 -5 -3 -10 -12 -7 -12 -10 -1 -10 7
0 11 -6 7 -15 -3 -8 -2 -15 2 -15 4 0 8 -15 9 -32 1 -18 3 -43 4 -56 1 -12 6
-25 11 -28 5 -3 3 -13 -4 -22 -10 -12 -10 -14 0 -8 8 5 12 0 12 -13 0 -12 -1
-23 -2 -24 -2 -2 3 -11 11 -20 11 -14 11 -17 0 -17 -11 0 -11 -2 1 -10 8 -5
11 -10 6 -10 -5 0 -2 -7 5 -17 8 -9 13 -18 12 -20 -2 -1 -3 -4 -2 -5 0 -2 3
-14 5 -27 2 -14 11 -37 18 -52 10 -21 11 -29 2 -33 -7 -3 -7 -5 2 -5 7 -1 10
-5 7 -11 -3 -5 -1 -10 5 -10 7 0 10 -7 6 -15 -3 -8 2 -21 10 -30 9 -8 14 -21
11 -28 -2 -6 0 -21 6 -32 6 -11 12 -29 14 -40 2 -11 8 -24 13 -29 4 -4 6 -15
3 -22 -3 -8 0 -14 6 -14 6 0 8 -7 5 -15 -4 -8 -2 -15 3 -15 5 0 9 -10 10 -22
1 -11 6 -24 11 -27 5 -3 8 -14 6 -24 -1 -9 4 -24 13 -32 8 -8 12 -15 9 -15 -3
0 5 -30 19 -67 13 -37 21 -71 18 -76 -3 -6 -1 -7 5 -3 7 4 12 4 13 -1 2 -26
10 -58 17 -67 5 -6 14 -30 22 -53 7 -24 17 -43 22 -43 4 0 7 -3 6 -7 -4 -15
24 -83 33 -83 6 0 7 -5 4 -10 -4 -6 0 -22 9 -35 9 -13 16 -31 16 -40 0 -8 4
-15 8 -15 5 0 15 -18 22 -40 8 -23 21 -45 29 -50 9 -5 14 -10 12 -12 -7 -6 10
-48 20 -48 5 0 9 -7 9 -15 0 -8 5 -15 11 -15 5 0 7 -5 4 -10 -4 -6 4 -19 17
-30 13 -11 19 -19 15 -20 -4 0 3 -12 17 -27 14 -15 22 -31 19 -37 -3 -6 -3 -8
1 -4 9 8 36 -14 30 -24 -2 -3 9 -19 25 -34 17 -15 27 -33 24 -38 -4 -6 -3 -8
1 -5 7 7 56 -33 56 -45 0 -12 27 -35 34 -29 3 4 6 -1 6 -10 0 -9 5 -17 11 -17
6 0 31 -20 56 -45 25 -24 50 -42 56 -38 6 3 7 1 3 -5 -4 -6 4 -16 16 -23 13
-7 30 -20 39 -31 9 -10 19 -18 23 -18 3 0 20 -13 38 -30 17 -16 35 -30 40 -30
5 0 6 -4 3 -10 -3 -5 3 -10 14 -10 12 0 21 -7 21 -16 0 -8 4 -13 8 -10 5 3 15
-4 22 -15 8 -10 18 -19 23 -19 5 0 21 -12 37 -27 15 -16 40 -37 56 -48 15 -11
36 -29 46 -39 10 -11 18 -16 18 -11 0 4 8 -2 19 -13 10 -12 21 -19 25 -15 3 3
6 1 6 -5 0 -6 9 -14 20 -17 11 -4 18 -11 14 -16 -3 -5 -2 -9 3 -8 13 4 63 -23
63 -34 0 -6 3 -8 6 -4 4 3 13 -1 21 -9 8 -8 19 -12 24 -9 5 4 9 -1 9 -9 0 -9
3 -15 8 -14 12 3 62 -25 62 -34 0 -5 5 -6 10 -3 6 3 13 -1 16 -9 3 -9 10 -14
14 -11 4 2 18 -4 30 -15 12 -11 27 -17 31 -14 5 3 9 1 9 -3 0 -5 14 -17 30
-26 17 -10 30 -16 30 -13 0 3 9 -3 20 -14 11 -11 27 -20 35 -20 8 0 19 -9 25
-20 6 -10 16 -17 24 -14 7 3 19 -2 26 -11 7 -8 21 -15 32 -15 12 0 17 -4 12
-12 -5 -7 -2 -9 9 -5 9 3 17 1 19 -5 2 -6 19 -12 38 -14 18 -3 40 -10 49 -17
12 -10 13 -9 6 3 -7 13 -6 13 7 2 11 -9 18 -10 23 -2 3 6 12 7 18 3 17 -11 67
-10 67 0 0 5 7 6 16 3 10 -4 13 -2 8 6 -5 7 -2 9 8 5 9 -3 25 3 36 14 12 10
25 19 31 19 10 0 25 30 22 43 -1 5 3 6 8 2 11 -6 34 29 25 38 -3 3 4 11 16 17
14 8 18 15 12 23 -13 16 -12 49 2 66 8 11 8 13 -1 7 -9 -4 -13 -1 -13 9 0 10
-11 38 -23 64 -13 25 -23 58 -23 74 1 15 -2 27 -6 27 -4 0 -8 7 -8 15 0 8 -4
23 -9 33 -28 57 -54 118 -53 125 1 4 -3 7 -8 7 -6 0 -10 7 -10 15 0 8 -4 15
-10 15 -5 0 -10 6 -10 14 0 8 -5 16 -10 18 -6 2 -12 13 -13 25 0 12 -4 20 -8
17 -7 -4 -23 26 -21 39 1 4 -2 7 -8 7 -5 0 -16 16 -25 35 -8 20 -21 43 -30 51
-8 9 -13 20 -10 25 4 5 1 9 -5 9 -6 0 -8 5 -5 10 3 6 1 10 -5 10 -6 0 -16 14
-21 30 -6 17 -15 30 -21 30 -6 0 -7 7 -4 16 3 8 2 13 -3 10 -5 -3 -14 8 -22
25 -7 17 -22 41 -33 52 -12 11 -14 16 -6 12 13 -8 13 -7 1 8 -7 9 -10 17 -5
17 5 0 2 6 -7 13 -16 12 -33 46 -31 60 1 4 -3 7 -9 7 -5 0 -8 4 -5 9 4 5 3 11
-1 13 -11 4 -48 81 -46 96 0 6 -6 12 -14 12 -13 0 -13 2 -2 17 10 11 10 14 2
9 -12 -7 -17 6 -16 41 1 7 -3 10 -8 7 -5 -3 -10 2 -10 10 -2 23 -3 27 -22 70
-10 22 -15 41 -13 44 3 2 -2 11 -10 20 -13 12 -13 16 -2 23 7 5 8 9 2 9 -12 0
-38 74 -37 102 0 10 -4 15 -10 11 -6 -4 -8 0 -4 9 3 9 3 19 -1 23 -4 4 -7 10
-8 13 0 4 -4 15 -8 24 -4 9 -9 25 -11 35 -2 10 -4 18 -5 18 -1 0 -3 7 -5 15
-8 37 -10 45 -17 50 -3 3 -8 19 -10 35 -2 17 -6 32 -10 35 -3 3 -8 14 -10 25
-1 11 -6 22 -9 25 -4 3 -9 16 -10 30 -2 14 -7 27 -10 30 -4 3 -9 16 -10 30 -2
14 -6 27 -9 30 -10 9 -31 95 -33 132 -1 20 -6 34 -11 30 -5 -3 -7 2 -3 10 3 9
0 21 -6 27 -6 6 -7 11 -3 11 5 0 3 7 -4 15 -8 10 -9 15 -1 15 7 0 8 8 0 27 -5
14 -8 32 -5 40 3 7 1 13 -4 13 -5 0 -7 6 -4 14 3 8 1 17 -5 21 -8 4 -8 12 -1
26 6 10 7 19 2 19 -5 0 -9 10 -8 23 1 12 -3 25 -9 29 -6 5 -5 8 3 8 7 0 10 5
7 10 -4 6 -8 28 -10 50 -2 21 -5 43 -8 47 -3 5 -2 15 3 23 5 9 5 19 -2 27 -6
7 -8 13 -5 13 3 0 1 16 -3 35 -5 21 -4 35 2 35 5 0 6 6 1 13 -4 6 -8 33 -9 58
0 25 -4 51 -8 57 -4 7 -2 12 4 12 6 0 8 5 4 12 -4 7 -9 59 -11 117 -2 59 -5
112 -8 119 -2 6 1 12 7 12 7 0 7 4 -1 14 -9 11 -9 15 1 19 7 3 9 6 3 6 -6 1
-8 30 -5 77 3 42 1 78 -3 81 -4 3 -3 10 2 17 7 9 7 16 -1 24 -7 7 -8 12 -2 12
5 0 9 53 8 128 0 78 3 132 10 141 8 11 8 15 -1 18 -9 3 -10 10 -3 23 6 11 6
21 1 24 -7 5 -8 41 -1 41 1 0 3 34 6 75 8 163 11 197 15 206 3 5 5 33 4 61 0
29 2 53 5 53 3 0 5 15 5 33 -1 17 3 38 8 45 6 8 5 12 -3 12 -9 0 -9 4 -3 13 6
6 11 26 12 42 2 56 9 100 16 119 6 14 5 17 -4 11 -10 -6 -11 -3 -2 13 6 12 12
45 14 74 2 29 5 58 8 63 3 6 5 24 4 40 -1 17 4 33 9 37 7 5 6 8 -3 8 -11 0
-11 3 -1 15 7 8 9 15 5 15 -4 0 -2 6 4 14 8 10 9 16 1 21 -6 3 -8 11 -4 16 5
10 12 49 16 102 1 15 5 27 9 27 4 0 6 11 4 25 -1 14 1 25 4 25 4 0 7 10 8 23
1 21 10 72 13 72 1 0 3 9 5 20 5 27 13 60 15 60 2 0 9 37 12 63 1 6 5 12 10
12 4 0 7 3 7 8 -1 4 0 12 1 17 1 6 3 15 5 20 1 6 3 18 3 28 1 10 6 16 11 13 5
-4 8 2 6 11 -1 10 0 23 4 28 7 12 11 32 14 62 2 12 7 26 11 30 5 5 6 1 1 -7
-5 -8 -4 -12 0 -7 5 4 10 14 11 21 4 25 46 141 55 151 5 5 9 17 9 26 0 10 7
25 16 33 8 9 12 16 8 16 -3 0 -1 7 6 15 6 8 9 18 6 24 -3 5 1 12 10 15 9 4 14
9 11 13 -4 3 0 15 8 27 8 11 15 28 15 38 0 10 5 18 11 18 5 0 7 5 4 10 -3 6
-1 10 5 10 7 0 10 6 7 14 -3 8 -1 16 4 18 6 2 11 10 13 18 8 42 19 70 28 70 5
0 7 4 3 9 -3 5 -1 12 4 16 6 3 8 12 5 19 -3 8 0 17 5 21 6 3 9 11 6 16 -4 5
-1 9 5 9 6 0 9 4 6 8 -2 4 6 29 19 55 14 26 22 47 18 47 -3 0 2 9 12 20 10 11
14 20 10 20 -4 0 -2 8 6 18 8 9 24 36 35 59 10 24 22 43 27 43 4 0 7 5 7 11 0
6 9 23 20 39 11 15 17 30 13 34 -3 3 -2 6 4 6 6 0 21 19 33 43 12 23 25 44 29
47 3 3 17 25 30 50 13 25 30 52 37 61 8 8 14 19 14 23 0 26 88 130 143 169 36
26 67 53 70 61 6 16 -25 41 -37 29 -3 -3 -6 4 -6 16 0 46 -33 73 -90 75 -8 0
-17 3 -20 7 -3 3 -21 2 -40 -3z"/>
<path d="M14551 10897 c-6 -6 -11 -7 -11 -1 0 5 -4 4 -8 -2 -4 -5 -43 -23 -87
-38 -79 -28 -133 -58 -148 -83 -4 -7 -14 -13 -22 -13 -8 0 -26 -11 -41 -23
-27 -23 -27 -25 -15 -78 13 -62 14 -63 30 -104 7 -16 14 -34 15 -40 1 -5 5
-16 9 -22 5 -7 5 -13 0 -13 -4 0 0 -5 9 -11 11 -6 15 -16 11 -26 -4 -9 -2 -14
3 -10 5 3 14 -6 21 -19 8 -18 8 -22 0 -18 -7 4 -3 -3 8 -14 33 -35 45 -51 45
-60 0 -5 7 -15 15 -22 8 -7 12 -16 9 -21 -3 -5 3 -6 12 -2 11 4 15 3 10 -5 -3
-6 4 -18 16 -26 12 -9 19 -16 14 -16 -5 0 7 -15 27 -34 20 -18 34 -36 31 -39
-3 -3 4 -10 15 -17 12 -6 19 -15 16 -20 -3 -5 4 -12 16 -15 11 -4 18 -9 15
-12 -3 -3 11 -21 30 -39 19 -19 32 -39 29 -44 -4 -6 -3 -9 2 -8 5 2 20 -8 33
-21 14 -13 18 -20 10 -16 -8 5 2 -8 23 -28 20 -19 37 -39 37 -44 0 -5 9 -15
20 -23 11 -8 20 -20 20 -26 0 -7 7 -15 16 -18 9 -4 14 -9 11 -12 -8 -8 16 -33
26 -27 4 2 7 -5 7 -16 0 -12 5 -21 10 -21 6 0 10 -7 10 -16 0 -8 5 -12 10 -9
6 3 10 -3 10 -13 0 -11 7 -23 16 -26 8 -3 13 -10 10 -14 -3 -5 4 -15 15 -22
10 -8 19 -20 19 -27 0 -6 14 -32 30 -56 17 -25 30 -49 30 -55 0 -5 7 -15 15
-22 8 -7 12 -16 9 -21 -3 -5 0 -9 5 -9 6 0 11 -7 11 -15 0 -8 5 -15 11 -15 5
0 8 -4 5 -9 -3 -5 1 -14 9 -21 8 -7 15 -19 15 -26 0 -8 5 -14 11 -14 5 0 7 -4
4 -10 -3 -5 -1 -10 5 -10 6 0 8 -4 5 -10 -3 -5 -2 -10 2 -10 8 0 43 -63 54
-95 1 -5 11 -19 21 -29 10 -11 18 -26 18 -34 0 -7 7 -20 15 -29 8 -8 13 -19
10 -24 -4 -5 1 -9 9 -9 9 0 15 -3 14 -7 -1 -5 7 -26 17 -48 10 -22 17 -43 17
-47 -1 -5 2 -8 8 -8 5 0 10 -7 10 -15 0 -8 5 -15 11 -15 5 0 8 -4 5 -9 -3 -4
1 -17 9 -27 8 -10 15 -27 15 -36 0 -10 5 -18 10 -18 6 0 10 -7 10 -15 0 -8 4
-23 10 -33 12 -20 27 -63 28 -76 0 -5 5 -12 11 -16 7 -3 13 -20 14 -37 1 -17
5 -29 10 -26 4 2 7 -4 7 -14 0 -11 5 -24 12 -31 7 -7 9 -12 5 -12 -4 0 -1 -13
8 -30 9 -16 13 -30 9 -30 -4 0 -1 -6 5 -13 6 -8 8 -17 4 -20 -3 -4 -2 -7 3 -7
9 0 11 -8 17 -64 1 -13 5 -22 10 -19 4 2 7 -4 7 -14 0 -10 7 -36 14 -58 13
-37 26 -92 28 -122 1 -7 4 -13 8 -13 3 0 7 -17 8 -37 2 -21 6 -40 10 -43 8 -6
10 -16 14 -64 1 -20 5 -36 9 -36 5 0 6 -9 4 -20 -2 -11 2 -20 8 -20 7 0 6 -4
-3 -10 -9 -6 -10 -10 -3 -10 6 0 10 -9 8 -20 -2 -11 0 -20 5 -20 4 0 6 -10 2
-22 -3 -11 -1 -19 4 -16 5 4 8 -13 8 -35 -1 -23 1 -46 4 -52 6 -9 14 -81 16
-137 1 -16 5 -28 10 -28 5 0 3 -6 -3 -14 -7 -8 -8 -17 -4 -19 5 -3 10 -23 12
-44 6 -69 9 -98 11 -98 1 0 3 -10 4 -22 2 -13 -2 -23 -8 -23 -8 0 -8 -3 -1 -8
6 -4 11 -18 10 -32 0 -14 3 -35 7 -46 4 -12 1 -27 -5 -33 -7 -7 -7 -11 -1 -11
7 0 10 -59 8 -177 -4 -226 -3 -213 -17 -213 -8 0 -8 -3 -2 -8 11 -8 16 -52 6
-52 -3 0 -7 -12 -8 -27 -5 -95 -9 -123 -16 -123 -5 0 -5 -9 -2 -20 3 -11 3
-20 -2 -20 -4 0 -7 -18 -7 -40 1 -22 -1 -40 -5 -40 -5 0 -11 -40 -15 -107 0
-13 -3 -23 -6 -23 -3 0 -7 -12 -8 -27 -1 -15 -8 -30 -15 -35 -7 -5 -8 -8 -1
-8 6 0 11 -7 11 -15 0 -8 -3 -15 -7 -15 -3 0 -6 -8 -7 -17 -1 -10 -5 -34 -8
-53 -3 -19 -7 -44 -8 -55 -1 -11 -6 -25 -9 -31 -4 -6 -9 -24 -12 -40 -3 -16
-12 -50 -20 -76 -7 -26 -11 -49 -8 -52 3 -4 -1 -6 -8 -6 -7 0 -10 -3 -7 -6 3
-4 2 -14 -3 -24 -5 -9 -11 -30 -14 -45 -3 -16 -9 -31 -13 -34 -9 -7 -16 -28
-16 -51 0 -8 -5 -22 -12 -30 -15 -19 -36 -80 -28 -80 4 0 -2 -7 -13 -15 -10
-8 -16 -15 -11 -15 4 0 -2 -17 -13 -37 -11 -21 -20 -43 -20 -50 0 -7 -4 -13
-9 -13 -5 0 -12 -14 -16 -30 -4 -17 -10 -30 -15 -30 -9 0 -25 -39 -22 -52 1
-5 -1 -8 -6 -8 -4 0 -16 -15 -26 -34 -10 -19 -25 -37 -32 -40 -8 -3 -14 -15
-14 -26 0 -11 -7 -23 -15 -26 -8 -4 -12 -10 -9 -15 3 -5 0 -9 -6 -9 -6 0 -8
-4 -5 -10 3 -5 -1 -10 -9 -10 -9 0 -15 -3 -14 -7 5 -14 -28 -53 -37 -45 -5 4
-5 2 -2 -4 3 -6 -5 -22 -19 -37 -13 -14 -24 -31 -24 -37 0 -5 -8 -10 -17 -10
-9 0 -13 -3 -10 -7 4 -3 -6 -19 -22 -34 -16 -15 -27 -30 -23 -33 3 -3 -1 -6
-10 -6 -8 0 -21 -11 -28 -25 -7 -14 -19 -25 -27 -25 -7 0 -13 -7 -13 -15 0 -8
-4 -15 -8 -15 -15 0 -152 -140 -152 -155 0 -8 -4 -15 -10 -15 -12 0 -34 -74
-35 -120 -1 -19 -5 -51 -10 -70 -13 -49 -13 -104 0 -112 6 -5 5 -8 -3 -8 -8 0
-5 -8 8 -22 11 -12 18 -28 15 -36 -2 -7 0 -10 5 -7 6 3 10 -1 10 -10 0 -9 5
-13 10 -10 6 3 13 0 16 -8 3 -9 19 -21 35 -27 16 -7 29 -17 29 -22 0 -5 9 -6
20 -3 12 4 20 2 20 -5 0 -6 4 -9 8 -6 4 2 14 1 22 -4 9 -5 19 -5 27 2 8 6 13
6 13 1 0 -11 29 -11 48 1 7 4 12 2 12 -4 0 -7 6 -8 18 -2 9 5 33 9 52 11 19 1
38 7 42 14 6 9 8 8 8 -3 0 -11 3 -12 8 -3 4 6 19 13 32 15 14 2 31 7 38 11 6
5 17 5 22 2 6 -3 10 -1 10 4 0 6 3 10 8 10 4 -1 9 0 12 1 3 1 48 4 100 6 52 3
107 5 123 6 15 1 27 6 27 11 0 5 6 4 14 -2 8 -7 16 -8 18 -2 1 5 19 12 38 15
19 3 50 10 68 15 17 5 32 8 32 6 0 -2 19 2 42 11 22 8 43 12 46 9 2 -2 14 2
26 10 11 8 28 15 38 15 10 0 18 5 18 11 0 5 5 7 10 4 6 -3 10 -1 10 5 0 6 5 8
10 5 6 -3 10 -1 10 5 0 6 5 8 11 4 6 -3 14 -3 18 2 11 15 51 35 60 29 5 -3 12
2 15 11 3 8 10 12 16 9 5 -3 10 -2 10 4 0 6 11 13 25 17 14 3 23 10 20 14 -3
4 9 10 26 14 17 3 28 10 24 16 -3 5 3 10 14 10 12 0 21 5 21 10 0 6 7 10 15
10 8 0 15 5 15 11 0 5 5 7 10 4 6 -3 10 -2 10 2 0 10 62 49 72 45 5 -1 7 4 5
11 -1 6 6 11 16 11 9 -1 17 5 17 14 0 8 3 12 7 9 3 -4 12 1 19 11 7 9 16 17
21 17 4 0 17 9 29 20 11 11 30 26 42 34 11 8 18 19 15 24 -3 6 -2 8 3 4 5 -3
18 1 29 9 10 8 16 14 13 14 -3 0 28 33 68 74 40 41 70 76 67 79 -2 3 5 10 16
17 12 6 21 18 21 26 0 8 5 12 10 9 6 -3 10 -2 10 4 0 14 52 91 62 91 5 0 7 4
4 9 -3 5 1 14 10 21 8 7 13 19 10 27 -3 8 -2 11 3 8 5 -3 12 4 16 15 3 11 11
20 16 20 6 0 8 4 4 9 -3 5 2 17 11 25 8 9 12 16 8 16 -3 0 -1 7 6 15 7 8 9 15
4 15 -5 0 -1 5 9 11 9 6 15 14 12 20 -4 5 -1 9 5 9 6 0 9 4 6 9 -3 5 1 14 9
21 8 7 15 21 15 31 0 11 5 19 11 19 5 0 8 4 4 9 -3 5 -1 12 5 16 6 4 8 10 5
15 -3 5 3 13 12 19 14 8 15 11 3 11 -12 0 -10 4 4 15 11 8 16 15 12 15 -5 0
-3 7 4 15 7 8 9 15 6 15 -4 0 0 7 8 16 9 8 14 19 11 24 -3 4 2 13 10 20 8 7
12 16 9 21 -3 5 0 9 5 9 6 0 11 3 10 8 -2 15 14 52 22 52 5 0 9 8 9 18 0 10 5
23 12 30 7 7 8 12 2 12 -5 0 -3 4 5 9 8 5 15 20 16 33 1 12 6 22 11 21 5 -1
10 10 11 24 0 14 7 29 15 34 7 5 10 9 5 9 -4 0 -1 14 8 30 9 17 13 30 10 30
-3 0 1 10 9 22 14 23 31 77 28 91 -1 4 2 7 6 7 5 0 9 6 10 13 1 10 3 22 11 70
0 5 5 6 9 3 4 -3 7 8 6 25 -1 16 2 31 6 34 5 3 7 14 5 25 -2 11 0 20 5 20 5 0
7 9 5 20 -2 11 0 20 5 20 5 0 7 7 4 15 -3 8 -2 19 2 26 4 7 9 32 11 57 2 25 9
54 14 65 9 15 8 18 -2 12 -8 -6 -10 -4 -3 6 11 17 12 29 17 105 2 33 7 66 11
72 4 7 3 12 -3 12 -7 0 -7 8 -1 24 5 13 6 27 3 30 -3 3 0 12 6 20 7 8 8 17 4
19 -9 6 -7 121 1 144 3 7 1 15 -5 18 -5 4 -6 11 -2 18 7 12 12 407 5 421 -3 5
-5 32 -5 60 1 28 -3 58 -7 67 -5 8 -5 21 0 29 5 8 6 19 2 24 -6 11 -9 31 -15
111 -2 23 -6 45 -8 50 -3 6 -6 25 -8 44 -1 18 -6 41 -11 52 -7 12 -7 20 0 24
8 5 8 11 1 19 -6 7 -11 27 -13 44 -1 18 -5 32 -8 32 -4 0 -6 10 -5 23 1 12 -2
35 -6 51 -9 30 -21 101 -22 124 0 6 -3 12 -7 12 -3 0 -7 17 -8 38 -2 20 -7 39
-13 40 -6 3 -5 10 3 20 11 13 11 14 -1 7 -11 -6 -13 -3 -9 13 4 12 2 24 -2 27
-5 3 -12 26 -16 50 -3 25 -10 45 -15 45 -4 0 -6 9 -4 20 2 11 -1 20 -6 20 -6
0 -8 4 -5 9 4 5 1 22 -5 38 -6 15 -12 35 -14 43 -2 8 -11 35 -19 59 -9 24 -16
52 -16 62 0 11 -5 19 -11 19 -6 0 -9 7 -5 15 3 8 0 15 -7 15 -8 0 -6 4 3 10
13 8 12 10 -3 10 -10 0 -16 4 -12 9 3 5 1 12 -5 16 -6 4 -7 11 -4 17 4 6 1 14
-5 18 -7 4 -13 17 -14 28 -1 12 -5 22 -10 22 -4 0 -6 4 -2 9 3 5 0 13 -6 16
-5 4 -8 14 -5 22 3 8 1 11 -4 8 -6 -3 -10 3 -10 14 0 12 -5 21 -11 21 -5 0 -8
4 -4 9 3 5 0 15 -7 23 -7 7 -14 20 -16 28 -2 8 -8 17 -13 18 -5 2 -7 7 -4 12
3 5 0 14 -7 22 -7 7 -14 20 -16 28 -2 8 -8 17 -13 18 -5 2 -9 12 -9 23 0 10
-4 19 -9 19 -5 0 -12 11 -15 25 -4 14 -11 23 -16 20 -6 -3 -7 1 -4 9 3 9 1 16
-5 16 -6 0 -11 7 -11 15 0 8 -5 15 -11 15 -5 0 -7 5 -4 10 3 6 1 10 -5 10 -6
0 -16 14 -21 30 -6 17 -16 30 -22 30 -6 0 -8 3 -4 6 3 3 -3 15 -14 27 -10 11
-19 27 -19 34 0 8 -4 11 -10 8 -5 -3 -10 1 -10 9 0 9 -5 16 -11 16 -5 0 -7 5
-4 10 3 6 1 10 -5 10 -6 0 -14 8 -17 18 -8 19 -11 24 -52 71 -17 19 -28 37
-26 40 3 2 -4 11 -16 19 -11 8 -24 25 -30 39 -5 14 -14 21 -21 17 -7 -4 -8 -3
-4 4 4 7 2 12 -3 12 -6 0 -11 5 -11 10 0 6 -12 22 -26 35 -15 14 -23 25 -19
25 5 0 -6 11 -25 25 -19 14 -27 25 -19 25 9 1 8 4 -6 12 -26 15 -99 88 -88 89
4 0 -2 4 -15 10 -13 5 -20 13 -17 19 4 6 1 9 -7 8 -7 -2 -12 3 -10 10 1 6 -3
12 -8 12 -13 0 -25 10 -87 70 -26 25 -41 36 -34 25 8 -11 0 -5 -16 13 -17 17
-36 32 -42 32 -6 0 -11 4 -11 8 0 5 -11 15 -25 22 -13 7 -22 17 -19 22 3 4 -1
8 -9 8 -7 0 -27 13 -43 30 -16 16 -35 30 -41 30 -7 0 -13 5 -13 10 0 6 -7 10
-15 10 -8 0 -15 3 -15 8 0 4 -18 18 -39 32 -22 13 -38 28 -35 32 3 4 -4 8 -15
8 -12 0 -21 5 -21 10 0 6 -7 10 -15 10 -8 0 -15 5 -15 10 0 6 -5 10 -10 10 -6
0 -20 9 -32 20 -12 11 -28 20 -35 20 -7 0 -13 5 -13 11 0 5 -4 7 -10 4 -5 -3
-10 1 -10 9 0 9 -8 16 -19 16 -10 0 -24 7 -31 15 -7 8 -21 15 -31 15 -10 0
-25 10 -34 23 -8 12 -16 20 -18 18 -4 -8 -47 11 -47 20 0 6 -4 8 -9 4 -5 -3
-17 3 -27 12 -10 10 -20 18 -23 17 -14 -3 -61 19 -61 28 0 5 -4 6 -10 3 -5 -3
-10 -1 -10 5 0 6 -4 8 -10 5 -5 -3 -10 -1 -10 4 0 6 -3 10 -7 9 -5 -2 -33 8
-63 22 -30 13 -58 24 -62 24 -3 1 -10 4 -14 9 -4 4 -16 7 -26 7 -13 0 -17 4
-12 13 4 6 4 9 0 5 -5 -4 -31 2 -60 14 -28 11 -57 21 -63 21 -7 0 -13 4 -13 9
0 4 -3 7 -7 6 -11 -2 -66 13 -78 22 -11 8 -70 23 -81 20 -4 -1 -11 6 -16 15
-8 13 -13 14 -24 4 -8 -6 -14 -7 -14 -2 0 12 -6 13 -107 17 -50 2 -86 -1 -92
-7z"/>
<path d="M12726 9864 c-9 -8 -16 -11 -16 -6 0 6 -8 9 -17 7 -10 -1 -17 -8 -15
-16 2 -9 0 -10 -10 -1 -10 8 -21 7 -43 -3 -27 -13 -83 -35 -95 -37 -3 -1 -11
-8 -18 -15 -8 -7 -18 -11 -23 -8 -5 4 -9 1 -9 -4 0 -6 -6 -11 -14 -11 -8 0
-16 -3 -18 -7 -1 -5 -30 -26 -62 -48 -32 -22 -76 -57 -97 -78 -22 -21 -39 -35
-39 -32 0 5 -40 -38 -100 -108 -14 -16 -33 -38 -42 -48 -10 -10 -18 -22 -18
-25 0 -3 -10 -20 -23 -37 -70 -95 -133 -272 -144 -401 -10 -130 -3 -292 15
-320 4 -6 7 -18 7 -26 0 -8 3 -19 6 -25 4 -5 12 -28 19 -50 7 -22 17 -46 23
-52 5 -7 6 -13 2 -13 -4 0 -2 -6 4 -13 6 -8 25 -40 42 -73 17 -32 38 -65 47
-71 9 -7 13 -13 9 -13 -14 0 105 -127 159 -170 42 -34 111 -77 154 -97 55 -25
122 -48 133 -45 4 1 7 -2 7 -6 0 -5 6 -9 13 -9 6 0 26 -3 42 -7 148 -30 379
-27 485 7 114 36 243 108 297 164 12 13 27 23 33 23 5 0 10 3 10 8 0 4 19 27
42 52 22 25 57 69 76 98 19 28 39 52 45 52 6 0 7 3 4 6 -4 4 2 19 11 33 10 14
23 37 30 51 6 14 16 32 22 40 13 21 50 102 50 111 0 4 4 18 9 31 5 13 9 26 10
30 1 4 9 27 17 50 35 101 48 185 48 328 1 139 -13 247 -35 276 -5 6 -6 14 -2
17 3 4 1 7 -5 7 -7 0 -11 3 -10 8 4 10 -65 132 -74 132 -5 0 -8 6 -8 13 0 16
-47 67 -62 67 -6 0 -8 3 -5 7 9 9 -105 90 -188 133 -76 40 -196 84 -260 95
-22 4 -44 10 -50 13 -5 3 -16 7 -25 7 -8 1 -37 5 -65 10 -84 13 -238 14 -254
2 -12 -9 -13 -9 -7 1 10 17 1 15 -18 -4z"/>
<path d="M7196 9823 c-1 -1 -17 -5 -36 -8 -19 -4 -39 -8 -45 -9 -5 -1 -16 -5
-22 -9 -7 -5 -17 -5 -23 -2 -5 3 -10 1 -10 -6 0 -7 -3 -10 -6 -7 -5 6 -100
-30 -180 -68 -21 -10 -43 -19 -49 -19 -5 -1 -9 -6 -7 -13 1 -7 -1 -11 -5 -10
-13 3 -53 -13 -53 -22 0 -4 -10 -10 -22 -14 -13 -3 -35 -17 -50 -31 -16 -14
-28 -23 -28 -20 0 3 -6 0 -14 -7 -8 -7 -11 -17 -8 -22 3 -5 1 -6 -5 -3 -5 3
-31 -14 -58 -38 -27 -25 -46 -45 -43 -45 3 0 -11 -17 -31 -38 -51 -53 -82 -92
-73 -92 4 0 0 -6 -8 -13 -18 -15 -53 -82 -53 -102 0 -8 -4 -12 -8 -10 -7 5
-32 -49 -32 -71 0 -8 -4 -14 -8 -14 -4 0 -6 -8 -4 -17 1 -10 -2 -23 -7 -29 -5
-7 -8 -16 -7 -20 1 -5 0 -11 -1 -14 -1 -3 -4 -18 -6 -35 -3 -16 -7 -37 -10
-45 -10 -25 -10 -160 -1 -160 5 0 4 -7 -3 -15 -7 -8 -8 -15 -3 -15 4 0 8 -22
8 -50 0 -27 3 -50 7 -50 5 0 7 -3 7 -7 -4 -22 2 -33 14 -27 9 6 9 5 0 -7 -7
-9 -8 -20 -3 -29 5 -8 6 -18 4 -22 -3 -4 0 -8 5 -8 6 0 10 -3 9 -7 -1 -5 4
-24 11 -43 8 -19 13 -38 12 -42 0 -5 4 -8 9 -8 5 0 9 -3 8 -7 -2 -12 31 -81
42 -88 6 -4 8 -11 5 -16 -4 -5 -1 -9 4 -9 6 0 11 -5 11 -11 0 -6 18 -38 40
-70 22 -32 40 -61 40 -64 0 -17 185 -206 194 -198 3 3 6 -2 6 -12 0 -10 3 -16
6 -12 4 3 12 1 19 -6 30 -28 56 -47 65 -47 6 0 10 -4 10 -9 0 -10 39 -27 53
-23 4 1 7 -2 7 -6 0 -4 24 -16 53 -27 28 -10 58 -23 66 -29 10 -8 13 -8 8 0
-3 6 0 11 8 11 8 0 12 -4 10 -8 -7 -10 22 -19 40 -13 8 4 15 2 15 -3 0 -10 51
-14 170 -16 118 -1 202 13 234 40 19 16 19 16 7 1 -12 -16 -11 -17 18 -7 17 6
31 15 31 20 0 5 7 9 16 9 22 0 137 64 204 114 53 39 177 159 230 221 25 30
150 213 150 220 0 2 15 37 34 78 67 144 89 258 88 447 0 58 -2 115 -5 128 -28
112 -41 155 -66 202 -49 96 -66 125 -78 133 -7 4 -13 12 -13 17 0 26 -189 185
-275 231 -22 12 -43 27 -47 33 -4 6 -8 7 -8 3 0 -5 -17 0 -37 11 -109 56 -211
86 -334 98 -65 6 -189 11 -193 7z"/>
<path d="M8905 6730 c-4 -6 -11 -7 -17 -4 -7 5 -8 2 -3 -6 6 -10 4 -12 -9 -7
-9 4 -32 -2 -52 -13 -19 -11 -41 -17 -47 -13 -8 5 -8 2 1 -9 10 -13 9 -15 -13
-12 -19 2 -25 -2 -23 -14 2 -10 10 -20 18 -24 11 -6 10 -7 -5 -5 -11 2 -19 9
-17 15 3 15 -15 16 -24 1 -3 -6 0 -15 7 -20 9 -6 10 -9 2 -9 -6 0 -14 4 -18
10 -7 11 -43 -20 -41 -35 1 -5 -5 -9 -12 -7 -8 1 -11 -2 -7 -8 4 -6 16 -8 28
-5 15 4 18 3 9 -3 -7 -5 -10 -17 -6 -28 5 -15 3 -15 -10 4 -22 29 -36 28 -36
-3 0 -14 5 -25 12 -25 6 0 8 -3 4 -7 -4 -5 -14 1 -22 11 -10 15 -14 16 -14 5
0 -8 6 -21 13 -29 6 -8 2 -6 -11 5 -17 14 -23 16 -20 5 2 -8 12 -21 23 -28 20
-13 20 -13 -1 -7 -13 3 -26 -1 -34 -10 -7 -8 -9 -15 -5 -15 4 0 3 -6 -3 -13
-6 -6 -9 -29 -7 -50 2 -21 1 -36 -3 -33 -4 2 -7 -16 -7 -40 0 -24 3 -44 8 -44
4 0 3 -9 -3 -19 -5 -11 -6 -22 -2 -25 5 -3 10 -18 11 -33 2 -36 8 -78 10 -78
2 0 7 -15 14 -47 1 -7 6 -18 9 -24 4 -6 9 -23 12 -38 3 -16 12 -39 21 -52 8
-13 13 -24 11 -24 -3 0 11 -30 31 -67 20 -38 45 -85 55 -105 10 -21 23 -38 29
-38 6 0 8 -4 5 -8 -3 -5 8 -23 24 -40 16 -18 26 -32 22 -32 -4 -1 4 -10 17
-20 13 -11 20 -20 16 -20 -4 0 27 -34 68 -75 41 -41 77 -75 81 -75 3 0 19 -13
34 -30 16 -16 32 -30 35 -30 6 0 34 -21 61 -45 26 -25 171 -115 184 -115 8 0
10 -5 6 -12 -4 -7 -4 -10 1 -6 4 4 29 -3 54 -16 25 -13 57 -28 71 -33 14 -6
36 -16 50 -22 14 -7 35 -14 45 -16 11 -2 21 -4 23 -5 1 -2 5 -3 10 -5 4 -1 14
-5 22 -8 11 -5 96 -30 140 -42 3 -1 12 -4 20 -7 17 -7 110 -30 125 -32 6 -1
12 -4 15 -7 3 -3 57 -16 120 -29 92 -19 147 -24 275 -24 170 0 193 2 295 29
36 9 72 19 80 21 24 5 107 30 217 64 179 54 281 105 404 200 57 44 265 253
304 305 16 22 33 42 36 45 14 10 99 130 92 130 -3 0 1 8 9 18 26 30 84 145 98
197 27 95 9 240 -39 315 -64 100 -171 176 -275 196 -35 6 -134 9 -146 4 -3 -2
-14 -4 -25 -5 -29 -4 -49 -9 -55 -15 -3 -3 -32 -19 -65 -37 -33 -18 -59 -37
-57 -42 1 -6 -4 -11 -10 -11 -7 0 -29 -23 -48 -50 -19 -28 -39 -56 -45 -63 -5
-7 -11 -19 -13 -27 -2 -8 -7 -17 -10 -20 -4 -3 -14 -17 -22 -32 -21 -37 -93
-120 -173 -200 -66 -64 -137 -108 -202 -123 -17 -4 -75 -21 -130 -37 -55 -16
-113 -32 -130 -35 -74 -15 -197 -2 -315 32 -8 2 -37 11 -65 19 -27 8 -84 24
-125 36 -114 34 -282 125 -298 162 -2 5 -9 8 -15 8 -19 0 -102 96 -128 147
-13 27 -26 50 -29 53 -7 7 -13 31 -14 53 0 9 -3 17 -6 17 -3 0 -6 9 -7 20 -1
11 2 18 7 15 4 -3 6 4 3 16 -5 16 -8 18 -15 7 -6 -9 -7 -6 -3 10 4 13 2 22 -4
22 -6 0 -11 5 -11 11 0 5 5 7 10 4 6 -3 10 -2 10 3 0 16 -13 22 -25 12 -8 -7
-12 -5 -12 5 0 8 4 12 9 9 4 -3 8 2 8 11 0 10 -5 13 -12 9 -8 -5 -8 -1 1 10
13 16 12 17 -15 11 -27 -5 -27 -5 -5 5 23 10 24 11 5 33 -11 12 -23 25 -27 28
-4 3 -9 15 -10 27 -1 12 -6 21 -12 21 -27 -3 -37 2 -31 17 3 8 2 12 -4 9 -6
-3 -10 -2 -10 4 0 5 -9 13 -20 16 -11 3 -20 14 -21 23 0 12 -3 11 -9 -5 -5
-13 -12 -23 -14 -23 -3 0 -3 7 0 15 3 8 -1 22 -10 30 -9 9 -16 12 -16 6 0 -6
-5 -11 -11 -11 -5 0 -7 5 -4 10 3 6 -3 10 -14 10 -12 0 -21 5 -21 10 0 19 -32
10 -37 -10 -3 -11 -9 -20 -15 -20 -5 0 -4 8 2 19 14 26 13 31 -5 25 -8 -4 -12
-11 -8 -17 4 -6 1 -7 -6 -3 -7 5 -10 14 -7 22 8 20 0 17 -25 -8 l-21 -23 7 25
c7 20 5 23 -6 14 -18 -13 -61 -16 -54 -3 4 5 4 9 1 9 -3 0 -8 -5 -11 -10z m-5
-35 c-7 -8 -18 -15 -24 -15 -6 0 -2 7 8 15 25 19 32 19 16 0z m44 -1 c4 -10 2
-13 -6 -8 -8 5 -9 1 -4 -12 5 -14 4 -16 -4 -8 -6 6 -8 18 -4 27 8 21 10 21 18
1z m56 -14 c-6 -11 -12 -20 -14 -20 -2 0 -2 9 1 20 3 11 9 20 15 20 5 0 4 -9
-2 -20z m-39 -13 c-10 -9 -11 -8 -5 6 3 10 9 15 12 12 3 -3 0 -11 -7 -18z
m143 1 c-3 -5 -15 -7 -26 -5 -15 4 -18 2 -13 -11 5 -13 3 -14 -6 -5 -16 16 -3
32 23 25 16 -4 19 -2 13 8 -5 9 -4 11 4 6 6 -4 8 -12 5 -18z m-237 -5 c2 -6
-1 -14 -6 -18 -7 -3 -8 0 -5 9 4 11 0 13 -14 9 -11 -2 -22 -1 -25 4 -3 5 6 8
21 7 14 0 28 -6 29 -11z m158 8 c3 -5 2 -12 -3 -15 -5 -3 -9 1 -9 9 0 17 3 19
12 6z m105 -5 c0 -2 -8 -10 -17 -17 -16 -13 -17 -12 -4 4 13 16 21 21 21 13z
m17 -16 c-2 -11 -6 -22 -9 -26 -4 -3 -5 2 -3 13 2 10 4 21 4 26 1 4 3 7 6 7 3
0 4 -9 2 -20z m-351 -18 c-18 -16 -18 -16 -6 6 6 13 14 21 18 18 3 -4 -2 -14
-12 -24z m394 3 c0 -2 -10 -9 -22 -15 -22 -11 -22 -10 -4 4 21 17 26 19 26 11z
m20 -15 c0 -5 -5 -10 -11 -10 -5 0 -7 5 -4 10 3 6 8 10 11 10 2 0 4 -4 4 -10z
m-505 -31 c-4 -5 -12 -9 -18 -8 -9 0 -8 2 1 6 6 2 9 10 6 15 -4 7 -2 8 5 4 6
-4 9 -12 6 -17z m35 8 c0 -2 -10 -12 -22 -23 l-23 -19 19 23 c18 21 26 27 26
19z m490 -1 c0 -3 -4 -8 -10 -11 -5 -3 -10 -1 -10 4 0 6 5 11 10 11 6 0 10 -2
10 -4z m43 -31 c-3 -9 -8 -14 -10 -11 -3 3 -2 9 2 15 9 16 15 13 8 -4z m17
-35 c0 -5 -4 -10 -10 -10 -5 0 -10 5 -10 10 0 6 5 10 10 10 6 0 10 -4 10 -10z
m20 -20 c0 -5 -5 -10 -11 -10 -5 0 -7 5 -4 10 3 6 8 10 11 10 2 0 4 -4 4 -10z
m-707 -70 c3 -11 1 -18 -4 -14 -5 3 -9 12 -9 20 0 20 7 17 13 -6z m-13 -30 c0
-5 -4 -10 -10 -10 -5 0 -10 5 -10 10 0 6 5 10 10 10 6 0 10 -4 10 -10z"/>
<path d="M9335 6530 c3 -5 8 -10 11 -10 2 0 4 5 4 10 0 6 -5 10 -11 10 -5 0
-7 -4 -4 -10z"/>
<path d="M10733 18045 c0 -8 4 -12 9 -9 5 3 6 10 3 15 -9 13 -12 11 -12 -6z"/>
<path d="M10780 18015 c0 -2 6 -8 13 -14 10 -8 14 -7 14 2 0 8 -6 14 -14 14
-7 0 -13 -1 -13 -2z"/>
<path d="M10770 17969 c0 -5 4 -8 9 -5 5 4 11 1 13 -5 2 -5 11 -7 21 -4 18 8
23 25 7 25 -5 0 -10 -5 -10 -12 0 -9 -3 -9 -12 0 -15 15 -28 15 -28 1z"/>
<path d="M10830 17940 c-6 -11 -9 -20 -8 -20 2 0 11 9 21 20 9 11 13 20 7 20
-5 0 -14 -9 -20 -20z"/>
<path d="M10953 17775 c0 -8 4 -15 9 -15 4 0 8 4 8 9 0 6 -4 12 -8 15 -5 3 -9
-1 -9 -9z"/>
</g>
</svg>
